<?xml version="1.0" encoding="UTF-8"?>
<svg style="height:512px;width:512px" version="1.1" viewBox="0 0 512 512" xmlns="http://www.w3.org/2000/svg" xmlns:xlink="http://www.w3.org/1999/xlink">
 <defs>
  <radialGradient id="radialGradient1139" cx="259.49" cy="256.81" r="239.67" gradientTransform="matrix(1 0 0 .98871 0 2.8983)" gradientUnits="userSpaceOnUse">
   <stop stop-color="#2c3e50" stop-opacity=".94118" offset="0"/>
   <stop stop-color="#00fff4" stop-opacity="0" offset="1"/>
  </radialGradient>
  <radialGradient id="radialGradient2757" cx="259.49" cy="256.81" r="239.67" gradientTransform="matrix(1 0 0 .98871 0 2.8983)" gradientUnits="userSpaceOnUse">
   <stop stop-color="#f1c40f" offset="0"/>
   <stop stop-color="#f1c40f" offset="1"/>
  </radialGradient>
 </defs>
 <g class="" transform="translate(-13)" fill="url(#radialGradient1139)" stroke="#000" stroke-width="2">
  <path d="m231.07 20.854c130.56 79.7 225.31 195.89 220.76 277.41-0.372 6.683-1.85 12.83-3.504 18.687-11.48-92.337-130.2-218.09-279.16-290.26-4.345-2.104-8.547-3.872-12.85-5.84h-135.49v7.004c32.332 6.406 67.257 16.19 103.96 30.37 163.15 63.025 296.54 179.68 298.44 260.47 0.13 5.782-0.565 11.256-1.752 16.353-18.234-79.442-144.17-184.84-296.1-243.53-36.907-14.258-72.094-24.558-104.54-30.954v49.64c164.21 24.05 386.08 133.88 366.14 290.65-9.53 74.94-113.13 76.27-159.74 35.17 45.327 72.98 186.19 70.605 235.7 21.09 75.81-75.81 25.19-249.3-112.72-387.2-17.778-17.776-36.23-34.278-54.9-49.058h-64.24zm7.3 236.1c-15.488 0.026-29.213 4.776-39.155 14.718v2e-3c-18.66 18.66-18.67 50.702-3.938 82.69 1.353-13.847 6.2-26.328 15.75-35.878 27.665-27.664 80.464-20.165 117.69 17.063 23.264 23.266 34.894 52.858 33.686 78.313 15.033-30.094 1.188-77.565-35.875-114.63-27.348-27.35-60.554-42.322-88.16-42.278zm16.185 63.83c-12.806 0.1-22.824 4.544-26.412 13.015-6.38 15.06 9.98 37.144 36.537 49.327 26.56 12.184 53.26 9.852 59.638-5.207 6.38-15.06-9.98-37.147-36.537-49.33-11.62-5.33-23.265-7.882-33.225-7.805zm-41.022 22.226c-11.47 19.105-0.906 49.236 27.373 72.763 32.573 27.1 76.033 35.056 97.143 17.498 14.236-11.843 14.244-32.184 3.003-52.49-1.032 8.79-4.73 16.712-12.016 22.775-21.11 17.56-61.394 12.8-89.8-10.832-17.75-14.772-26.625-33.555-25.704-49.713z" fill="url(#radialGradient2757)" stroke="#000" stroke-width="2"/>
 </g>
</svg>
