<?xml version="1.0" encoding="UTF-8" standalone="no"?>
<svg
   style="height: 512px; width: 512px;"
   viewBox="0 0 512 512"
   version="1.1"
   id="svg8"
   sodipodi:docname="archery.svg"
   inkscape:version="1.2.1 (9c6d41e410, 2022-07-14)"
   xmlns:inkscape="http://www.inkscape.org/namespaces/inkscape"
   xmlns:sodipodi="http://sodipodi.sourceforge.net/DTD/sodipodi-0.dtd"
   xmlns:xlink="http://www.w3.org/1999/xlink"
   xmlns="http://www.w3.org/2000/svg"
   xmlns:svg="http://www.w3.org/2000/svg">
  <defs
     id="defs12">
    <linearGradient
       inkscape:collect="always"
       id="linearGradient8332">
      <stop
         style="stop-color:#e74c3c;stop-opacity:1;"
         offset="0"
         id="stop8328" />
      <stop
         style="stop-color:#f1c40f;stop-opacity:1;"
         offset="1"
         id="stop8330" />
    </linearGradient>
    <linearGradient
       inkscape:collect="always"
       id="linearGradient3220">
      <stop
         style="stop-color:#bdc3c7;stop-opacity:1;"
         offset="0"
         id="stop3216" />
      <stop
         style="stop-color:#7f8c8d;stop-opacity:1;"
         offset="1"
         id="stop3218" />
    </linearGradient>
    <linearGradient
       inkscape:collect="always"
       id="linearGradient886">
      <stop
         style="stop-color:#e67e22;stop-opacity:1;"
         offset="0"
         id="stop882" />
      <stop
         style="stop-color:#f1c40f;stop-opacity:1;"
         offset="1"
         id="stop884" />
    </linearGradient>
    <linearGradient
       inkscape:collect="always"
       id="linearGradient45230">
      <stop
         style="stop-color:#e67e22;stop-opacity:1;"
         offset="0"
         id="stop45226" />
      <stop
         style="stop-color:#f1c40f;stop-opacity:1;"
         offset="1"
         id="stop45228" />
    </linearGradient>
    <radialGradient
       inkscape:collect="always"
       xlink:href="#linearGradient8332"
       id="radialGradient319"
       gradientUnits="userSpaceOnUse"
       gradientTransform="matrix(1,0,0,0.99859948,0,0.36255225)"
       cx="256.79791"
       cy="258.86889"
       fx="256.79791"
       fy="258.86889"
       r="237.4316" />
    <radialGradient
       inkscape:collect="always"
       xlink:href="#linearGradient886"
       id="radialGradient321-9"
       gradientUnits="userSpaceOnUse"
       gradientTransform="matrix(1,0,0,0.99859948,-3.927087,3.435465)"
       cx="256.79791"
       cy="258.8689"
       fx="256.79791"
       fy="258.8689"
       r="237.43159" />
    <radialGradient
       inkscape:collect="always"
       xlink:href="#linearGradient3220"
       id="radialGradient3222"
       cx="427.70858"
       cy="85.264547"
       fx="427.70858"
       fy="85.264547"
       r="62.71547"
       gradientTransform="matrix(1,0,0,0.99880307,0,0.10205609)"
       gradientUnits="userSpaceOnUse" />
    <radialGradient
       inkscape:collect="always"
       xlink:href="#linearGradient45230"
       id="radialGradient9062"
       gradientUnits="userSpaceOnUse"
       gradientTransform="matrix(1,0,0,0.99859948,0,0.36255225)"
       cx="256.79791"
       cy="258.86889"
       fx="256.79791"
       fy="258.86889"
       r="237.4316" />
  </defs>
  <sodipodi:namedview
     id="namedview10"
     pagecolor="#ffffff"
     bordercolor="#000000"
     borderopacity="0.25"
     inkscape:showpageshadow="2"
     inkscape:pageopacity="0.0"
     inkscape:pagecheckerboard="0"
     inkscape:deskcolor="#d1d1d1"
     showgrid="false"
     inkscape:zoom="0.35355339"
     inkscape:cx="169.70563"
     inkscape:cy="544.47222"
     inkscape:window-width="1278"
     inkscape:window-height="1360"
     inkscape:window-x="1266"
     inkscape:window-y="0"
     inkscape:window-maximized="0"
     inkscape:current-layer="svg8" />
  <g
     class=""
     style=""
     transform="translate(0,0)"
     id="g6">
    <path
       d="M492.656 20.406l-118.594 56.22L413.875 86l-86.97 86.97-305.5 259.374.69.687 104.75-47.467-46.376 105.843.905.906 272.5-319.875 73.22-73.218 9.342 39.81 56.22-118.624zm-473.25.063c-1.347 23.43 5 39.947 16.563 52.218l24.093 302.28 17.562-14.874-21.72-272.438c57.975 31.954 169.096 25.165 216.907 106.72l66.625-56.564 1.22-1.218C292.74 38.666 86.01 99.716 19.406 20.47zm359.531 151.56l-1.156 1.157-57.25 67.188c82.006 47.945 75.587 159.267 107.283 218.03l-272.157-24.5-14.812 17.408 301.562 27.125c12.48 12.283 29.4 19.084 53.688 17.687-79.95-67.2-18.36-275.754-117.156-324.094z"
       fill="#fff"
       fill-opacity="1"
       id="path4" />
  </g>
  <path
     style="fill:url(#radialGradient319);fill-opacity:1;stroke-width:1;stroke:#000000;stroke-opacity:1;stroke-dasharray:none"
     d="M 60.598104,372.83853 C 60.324514,372.04869 58.252307,346.45783 47.362661,209.38656 42.973266,154.13593 38.720501,100.6522 37.912071,90.533823 L 36.442198,72.136786 34.993388,70.592248 C 26.824117,61.883206 21.124396,47.454651 20.203689,33.152872 20.044821,30.685102 19.79142,27.114373 19.640576,25.217919 l -0.274262,-3.448098 4.649852,4.388727 c 8.964407,8.46099 15.684535,13.192164 26.183733,18.434146 19.81262,9.891936 42.550655,15.870146 79.669621,20.946475 11.94801,1.633991 20.43366,2.60515 56.8335,6.504435 40.72073,4.36216 61.59293,7.810148 81.72696,13.500906 20.433,5.77526 38.16074,14.314827 49.71024,23.94573 7.6788,6.40321 16.17723,16.52364 19.75336,23.52349 l 1.86104,3.64275 -1.42557,1.24106 c -0.78407,0.68258 -12.56206,10.70048 -26.17332,22.26201 -13.61127,11.56152 -28.00072,23.78508 -31.97657,27.16344 -6.1454,5.22188 -7.30354,6.01985 -7.72736,5.32426 -16.6933,-27.39804 -42.23519,-47.48407 -78.76923,-61.94381 -14.92333,-5.90647 -29.16614,-10.18136 -65.0594,-19.52717 C 91.273302,101.45118 82.185651,98.702192 68.678109,93.043032 65.73666,91.810677 61.643957,89.918885 59.583217,88.839053 l -3.746801,-1.963328 v 2.56359 c 0,2.560119 1.584722,23.182405 7.704101,100.254935 8.377186,105.50922 13.232267,167.61597 13.233827,169.2887 3.99e-4,0.43031 -2.298785,2.78905 -5.109301,5.24166 -9.6661,8.43516 -10.818236,9.33192 -11.066939,8.61392 z"
     id="path5078" />
  <path
     style="fill:url(#radialGradient3222);fill-opacity:1;stroke-width:1;stroke-dasharray:none;stroke:#000000;stroke-opacity:1"
     d="m 364.99311,134.88189 c 37.92661,-38.105079 49.2727,-48.838267 48.74041,-49.343626 -0.10729,-0.101857 -8.64492,-2.171334 -18.97252,-4.598832 -10.3276,-2.427493 -18.69957,-4.4919 -18.60439,-4.587565 0.19584,-0.196803 49.28642,-23.445299 88.17888,-41.760062 14.22854,-6.700329 25.96757,-12.084903 26.08676,-11.965721 0.35931,0.359313 -53.20486,113.968496 -53.73519,113.971896 -0.15551,0.001 -0.68318,-1.73683 -1.17258,-3.86186 -3.53586,-15.35283 -7.88399,-32.845455 -8.25712,-33.218582 -0.55971,-0.55971 -18.52097,16.850302 -49.91949,48.387412 -3.93099,-2.14293 -8.48066,-8.19751 -12.34476,-13.02306 z"
     id="path5080"
     sodipodi:nodetypes="csssssssscc" />
  <path
     style="fill:url(#radialGradient321-9);fill-opacity:1;stroke-width:1;stroke-dasharray:none;stroke:#000000;stroke-opacity:1"
     d="m 78.466654,491.89083 c 0.144467,-0.54839 8.269872,-19.28101 18.056459,-41.62804 23.064227,-52.66567 26.795227,-61.36866 26.454857,-61.70902 -0.30318,-0.30319 -4.87583,1.72304 -63.275145,28.03838 -21.07677,9.49741 -38.419615,17.16981 -38.539654,17.04976 -0.280258,-0.28025 5.545162,-5.25191 112.008079,-95.59238 48.94411,-41.53214 111.87225,-94.93737 139.84031,-118.67828 l 50.85102,-43.16529 41.13053,-41.32407 c 37.92661,-38.10507 24.91699,-23.44111 29.16701,-29.16701 10.91779,10.79959 2.38682,2.36122 12.62574,12.87082 -6.77118,7.65499 -1.97656,0.85506 -33.37508,32.39217 l -23.73711,23.84188 -56.01366,65.80721 C 191.39213,360.77557 81.057284,490.04883 79.206058,491.89083 l -1.002069,0.99708 z"
     id="path5080-8"
     sodipodi:nodetypes="sssscsscsccscsscs" />
  <path
     style="fill:url(#radialGradient9062);fill-opacity:1;stroke-width:1;stroke:#000000;stroke-opacity:1;stroke-dasharray:none"
     d="m 486.07594,495.52251 c -16.5697,-0.78363 -28.79763,-5.30853 -40.33303,-14.92509 l -3.19184,-2.66091 -37.43912,-3.37399 C 358.64554,470.375 242.05367,459.89294 186.20448,454.88189 c -23.03252,-2.06658 -42.27995,-3.91574 -42.77206,-4.10924 -0.75094,-0.29527 0.16077,-1.61302 5.67266,-8.19904 7.46114,-8.91514 5.88849,-8.16187 15.32714,-7.3414 7.31438,0.63581 152.05799,13.62805 188.5337,16.92286 61.07899,5.51719 74.75924,6.68905 75.02183,6.42646 0.15145,-0.15144 -1.1733,-3.42781 -2.9439,-7.28081 -6.52958,-14.20903 -10.0307,-25.29199 -19.48865,-61.69216 -9.24556,-35.58276 -13.50305,-50.1938 -18.64425,-63.98413 -10.6304,-28.51413 -22.32825,-47.77906 -39.41803,-64.91674 -6.98212,-7.00168 -12.06293,-11.19981 -20.32747,-16.79601 -5.56531,-3.76846 -5.60235,-3.80659 -4.69031,-4.82878 0.50561,-0.56668 11.43423,-13.36917 24.28581,-28.44999 26.56242,-31.16993 32.17249,-37.63973 32.63805,-37.63973 0.18089,0 2.1432,1.09043 4.36068,2.42318 15.33759,9.21816 26.75474,21.98465 35.45307,39.64314 11.68728,23.72635 18.15571,51.62685 23.70809,102.26085 0.96216,8.77429 2.75695,25.15131 3.98842,36.39337 5.36115,48.94189 9.16353,69.63281 16.97514,92.37142 6.69009,19.47399 13.89494,31.9264 25.92805,44.81234 2.64465,2.83209 4.62449,5.11353 4.39965,5.06986 -0.22483,-0.0437 -3.88611,-0.24383 -8.13616,-0.44483 z"
     id="path5082" />
</svg>
