<?xml version="1.0" encoding="UTF-8" standalone="no"?>
<svg
   style="height: 512px; width: 512px;"
   viewBox="0 0 512 512"
   version="1.1"
   id="svg1042"
   sodipodi:docname="arrows_slot.svg"
   inkscape:version="1.1.2 (0a00cf5339, 2022-02-04)"
   xmlns:inkscape="http://www.inkscape.org/namespaces/inkscape"
   xmlns:sodipodi="http://sodipodi.sourceforge.net/DTD/sodipodi-0.dtd"
   xmlns="http://www.w3.org/2000/svg"
   xmlns:svg="http://www.w3.org/2000/svg">
  <defs
     id="defs1046" />
  <sodipodi:namedview
     id="namedview1044"
     pagecolor="#ffffff"
     bordercolor="#666666"
     borderopacity="1.0"
     inkscape:pageshadow="2"
     inkscape:pageopacity="0.0"
     inkscape:pagecheckerboard="0"
     showgrid="false"
     inkscape:zoom="1.7050781"
     inkscape:cx="256"
     inkscape:cy="256"
     inkscape:window-width="1850"
     inkscape:window-height="1136"
     inkscape:window-x="0"
     inkscape:window-y="0"
     inkscape:window-maximized="1"
     inkscape:current-layer="svg1042" />
  <g
     class=""
     style="fill:#555555;fill-opacity:1"
     transform="translate(-3.1764032,1.39748)"
     id="g1040">
    <path
       d="m 341.21,18.004 -3.04,6.248 6.585,13.173 -9.588,-7.005 -8.31,17.076 5.96,13.107 -9.99,-4.824 -3.554,7.3 17.35,29.683 -33.874,69.606 a 416.538,416.538 0 0 0 18.326,3.477 l 31.722,-65.19 0.04,-0.005 21.937,-45.078 -0.04,0.006 L 383.08,38.425 366.896,30.55 358.558,47.683 341.21,18.001 Z M 55.578,34.978 c -0.634,0.002 -1.267,0.02 -1.9,0.057 -5.067,0.296 -10.09,1.74 -14.67,4.56 -4.553,2.804 -6.37,6.767 -7.827,10.832 -1.457,4.066 -2.388,8.677 -3.095,14.045 -1.413,10.738 -1.816,24.476 -1.486,40.66 0.658,32.37 4.336,74.363 9.923,118.346 8.822,69.45 22.01,143.094 36.53,191.793 l 0.054,-0.014 c 0.545,1.88 1.134,3.9 1.77,5.962 l 0.01,0.04 c 0.362,1.148 0.725,2.282 1.087,3.398 1.698,5.15 3.677,10.255 5.957,13.908 1.857,2.973 3.763,4.76 5.17,5.465 1.405,0.703 2.444,1.013 5.48,-0.07 1.757,-0.626 1.752,-0.61 2.35,-3.255 0.6,-2.647 0.505,-7.635 -0.522,-13.617 -1.064,-6.19 -2.98,-13.38 -5.028,-20.86 -13.193,-46.49 -26.532,-118.342 -35.002,-185.017 -5.53,-43.537 -9.145,-85.127 -9.783,-116.443 -0.32,-15.658 0.13,-28.787 1.336,-37.945 0.604,-4.58 1.424,-8.17 2.194,-10.318 0.38,-1.06 0.784,-1.647 0.94,-1.883 4.144,-2.356 7.705,-2.46 13.236,-0.394 5.81,2.17 13.136,7.287 20.948,14.655 15.623,14.735 33.2,37.99 51.013,61.012 17.813,23.023 35.792,45.84 54.308,60.533 5.98,4.747 12.075,8.698 18.43,11.374 2.59,0.674 5.962,1.44 9.43,1.905 3.61,0.482 7.23,0.544 9.443,0.148 1.64,-0.293 2.058,-0.586 2.116,-0.625 3.39,-6.163 1.936,-8.012 -1.37,-11.398 -3.317,-3.398 -10.153,-5.99 -12.435,-6.143 l 0.03,-0.433 c -4.388,-1.84 -9.276,-4.82 -14.453,-8.928 -15.74,-12.492 -33.554,-34.564 -51.26,-57.45 C 130.797,95.994 113.134,72.321 95.602,55.788 86.836,47.52 78.102,40.915 68.606,37.368 64.452,35.814 60.021,34.968 55.584,34.98 Z m 191.127,4.06 -8.145,24.102 9.3,21.06 -13.648,-8.19 -3.554,10.52 20.972,27.243 -10.406,30.8 c 5.658,2.05 11.33,3.997 17.027,5.84 l 10.427,-30.86 0.037,-0.01 16.05,-47.495 -0.042,0.012 6.106,-18.072 -17.053,-5.762 -6.1,18.053 -20.97,-27.243 z m 162.064,11.94 -12.565,1.7 -12.026,24.71 18.306,-13.502 6.283,-12.908 z m -90.872,12.205 -12.247,3.277 -16.045,47.495 12.248,-3.278 16.045,-47.494 z m 106.797,5.508 -8.807,12.15 2.262,28.574 -9.654,-18.375 -13.225,18.24 11.938,32.24 -21.738,29.987 c 7.335,0.094 14.8,0.016 22.416,-0.25 l 13.883,-19.154 0.04,0.002 29.424,-40.588 -0.04,-0.002 11.194,-15.443 -14.572,-10.566 -11.184,15.427 z m -28.916,8.982 -13.41,3.433 -8.103,16.65 12.564,-1.7 8.95,-18.383 z m 77.06,34.71 -4.803,6.625 12.77,0.366 4.702,-6.487 -12.67,-0.505 z m -5.733,7.905 -23.69,32.68 12.668,0.507 6.422,-8.857 -6.08,-3.598 9.475,-1.087 10.926,-15.072 -9.72,-4.573 z m -238.152,38.83 c -1.702,3.462 -3.393,6.85 -5.09,10.285 5.506,1.805 10.928,5.036 15.63,9.854 7.124,7.297 10.943,20.566 4.212,32.744 -3.314,5.994 -9.456,8.64 -14.668,9.572 -5.214,0.932 -10.3,0.602 -14.998,-0.025 -6.17,-0.825 -11.544,-2.263 -14.677,-3.19 -1.432,2.818 -2.863,5.64 -4.3,8.443 50.84,27.08 109.533,22.75 167.438,10.64 12.018,-15.735 23.947,-31.747 35.897,-48.106 -62.995,0.883 -117.13,-10.59 -169.445,-30.217 z m -42.14,83.683 c -25.922,49.92 -52.78,98.18 -83.245,146.836 2.912,10.984 6.645,23.148 8.578,34.405 1.223,7.123 1.856,13.942 0.338,20.64 -1.518,6.7 -6.486,13.604 -13.86,16.234 -6.776,2.417 -13.994,2.012 -19.59,-0.793 -5.598,-2.804 -9.44,-7.322 -12.374,-12.025 -0.223,-0.356 -0.433,-0.717 -0.647,-1.078 -2.342,3.425 -4.683,6.85 -7.072,10.287 C 73.4,482.04 98.747,494.51 121.21,493.98 211.93,417.368 280.956,341.866 345.86,258.97 292.488,268.235 236.855,269.383 186.816,242.8 Z"
       fill="#fff"
       fill-opacity="1"
       id="path1038"
       style="fill:#555555;fill-opacity:1" />
  </g>
</svg>
