<?xml version="1.0" encoding="UTF-8"?>
<svg style="height:512px;width:512px" version="1.1" viewBox="0 0 512 512" xmlns="http://www.w3.org/2000/svg">
 <g class="" transform="translate(.43801 6.6997)" fill="#555">
  <path d="m156.7 25.83-67.7 13.55c-0.1 58.57-1.74 119.32-43.49 167.22 58.89 39.9 143.49 54.1 201.49 42.2v-99l-138.7-61.58 7.4-16.44 140.3 62.42 140.3-62.42 7.4 16.44-138.7 61.58v99c58 11.9 142.6-2.3 201.5-42.2-41.8-47.9-43.4-108.65-43.5-167.22l-67.7-13.55c-12.9 13.88-20.6 28.15-32.9 40.53-13.5 13.42-32.9 22.64-66.4 22.64s-52.9-9.22-66.4-22.64c-12.3-12.38-20-26.65-32.9-40.53zm-102.82 207.07c22.08 48.1 42.19 103.7 48.82 159.9l65 22.8c4.2-52.7 28.2-104 63.7-146.1-55.1 6.3-122.7-5.8-177.52-36.6zm404.22 0c-54.8 30.8-122.4 42.9-177.5 36.6 35.5 42.1 59.5 93.4 63.7 146.1l65.2-22.9c6.6-56.8 26.6-111.8 48.6-159.8zm-202.1 36.1c-40.5 43.1-67.7 97.9-70.7 152.7l61.7 21.6v-107.3h18v107.3l61.7-21.6c-3.1-54.8-30.2-109.6-70.7-152.7zm151.7 143.4-110.7 38.7v18.8l110.2-44.1c0.1-4.5 0.3-8.9 0.5-13.4zm-303.3 0.1c0.3 4.5 0.4 8.9 0.5 13.4l110.1 44v-18.7zm174.6 44.9-23 8.1-23-8v19.6l23 9.2 23-9.2z" fill="#555"/>
 </g>
</svg>
