<?xml version="1.0" encoding="UTF-8"?>
<svg width="500" height="500" version="1.1" viewBox="0 0 500 500" xmlns="http://www.w3.org/2000/svg">
 <path d="m0-0h500v500h-500z" fill="#3498db"/>
 <g fill="#ecf0f1">
  <path d="m142.45 404.16c-2.9105 0-5.27 4.242-5.27 9.4756 0 0.15424 2e-3 0.30717 6e-3 0.45968-0.6-0.29759-1.231-0.45968-1.8836-0.45968-3.9084 0-7.077 5.6964-7.077 12.724s3.1686 12.725 7.077 12.725c0.0499 0 0.0994-5e-3 0.14903-7e-3 0.0511 4e-3 0.10202 7e-3 0.15339 7e-3h19.483c0.47398 0.22178 0.97123 0.34072 1.4837 0.34072 3.2496 0 5.8841-4.7374 5.8841-10.58 0-5.8423-2.6345-10.578-5.8841-10.578-0.98722 0-1.917 0.43918-2.7341 1.2117h-0.77058c0-4.73-2.1324-8.565-4.7631-8.565-0.26825 0-0.53118 0.0419-0.78755 0.11856-0.62932-3.9666-2.6585-6.8719-5.0665-6.8719z" stroke-width=".32493"/>
  <path d="m264.99 525.48c4.58 0 8.2929-6.6753 8.2929-14.911 0-0.24272-4e-3 -0.48338-0.01-0.72337 0.94417 0.46829 1.9371 0.72337 2.9641 0.72337 6.1503 0 11.136-8.9639 11.136-20.023 0-11.059-4.9862-20.024-11.136-20.024-0.0785 0-0.15649 8e-3 -0.23452 0.012-0.0803-6e-3 -0.1606-0.012-0.24138-0.012h-30.659c-0.74586-0.349-1.5283-0.53617-2.3348-0.53617-5.1136 0-9.2593 7.4548-9.2593 16.649 0 9.1935 4.1457 16.646 9.2593 16.646 1.5535 0 3.0166-0.6911 4.3024-1.9068h1.2126c0 7.4432 3.3556 13.478 7.4953 13.478 0.42213 0 0.83587-0.0659 1.2393-0.18655 0.99031 6.2419 4.1834 10.814 7.9727 10.814z" stroke-width=".51131"/>
  <path d="m312.61 528.66c5.1579 0 9.3394-7.5176 9.3394-16.792 0-0.27334-5e-3 -0.54437-0.0113-0.81464 1.0633 0.52738 2.1816 0.81464 3.3381 0.81464 6.9264 0 12.542-10.095 12.542-22.549s-5.6153-22.551-12.542-22.551c-0.0884 0-0.17624 9e-3 -0.26412 0.0135-0.0904-7e-3 -0.18086-0.0135-0.27184-0.0135h-34.527c-0.83997-0.39304-1.7212-0.60383-2.6294-0.60383-5.7589 0-10.428 8.3955-10.428 18.75 0 10.354 4.6688 18.746 10.428 18.746 1.7495 0 3.3973-0.77831 4.8453-2.1474h1.3656c0 8.3824 3.779 15.179 8.4411 15.179 0.4754 0 0.94135-0.0742 1.3957-0.21009 1.1153 7.0295 4.7113 12.178 8.9787 12.178z" stroke-width=".57583"/>
  <path d="m9.9377 455.04c-13.283 0.0976-24.006 19.536-23.951 43.418 0.0054 2.349 0.1194 4.6519 0.32496 6.8975-10.859 0.71677-19.522 16.802-19.477 36.486 0.04569 20.088 9.1414 36.304 20.313 36.222l78.668-0.57843c11.172-0.0822 20.193-16.431 20.147-36.52-0.04179-18.375-7.6559-33.504-17.504-35.889-2.3675-21.371-12.877-37.439-25.45-37.347-4.7509 0.0349-9.1936 2.3826-13.01 6.4329-4.3386-11.584-11.71-19.184-20.06-19.123z" stroke-width="1.2056"/>
  <path d="m57.264 453.97c-3.3586 0-6.3132 3.5596-8.0378 8.9481-0.51911-0.17904-1.0523-0.27655-1.5963-0.27655-5.3199 0-9.6333 8.9181-9.6333 19.919 0 0.44437 0.0091 0.88311 0.02314 1.3199-5.3806 0.58407-9.6573 9.79-9.6573 21.062 0 11.648 4.5677 21.091 10.201 21.091h39.667c5.6331 0 10.201-9.4431 10.201-21.091 0-9.3062-2.9161-17.2-6.9606-20-0.7254-9.5162-4.7087-16.794-9.5149-16.794-1.8942 0-3.656 1.1475-5.1453 3.0993-0.62565-9.7515-4.6598-17.278-9.5467-17.278z" stroke-width=".65194"/>
  <path d="m107.02 418.48c-11.055 0-20.016 13.351-20.016 29.822 0 0.4854 0.0081 0.96673 0.02296 1.4467-2.2789-0.9366-4.6755-1.4467-7.1541-1.4467-14.845 0-26.88 17.928-26.88 40.045s12.035 40.048 26.88 40.048c0.18954 0 0.37737-0.0151 0.56605-0.0207 0.19428 9e-3 0.38749 0.0207 0.5826 0.0207h74.001c1.8003 0.69798 3.6889 1.0723 5.6355 1.0723 12.342 0 22.349-14.91 22.349-33.297s-10.006-33.293-22.349-33.293c-3.7496 0-7.2811 1.3822-10.385 3.8135h-2.9268c0-14.886-8.0994-26.956-18.091-26.956-1.0188 0-2.0175 0.13162-2.9912 0.37297-2.3902-12.484-10.098-21.627-19.243-21.627z" stroke-width="1.1234"/>
  <g stroke-width=".11706">
   <path d="m36.477 433.13c-0.89201 0-1.6768 0.43213-2.1347 1.0863-0.13787-0.0217-0.27923-0.0336-0.42372-0.0336-1.413 0-2.5585 1.0826-2.5585 2.4182 0 0.0539 0.0024 0.1072 0.0061 0.16023-1.4291 0.0708-2.5651 1.1884-2.5651 2.5569 0 1.3664 1.1327 2.4827 2.559 2.5564v4e-3c0 1.3354 1.1455 2.4182 2.5585 2.4182 0.15388 0 0.30415-0.0134 0.45057-0.038 0.35413 0.93426 1.2987 1.6027 2.409 1.6027 1.2647 0 2.314-0.86744 2.5207-2.007 0.01253 1.2e-4 0.02494 4.7e-4 0.03757 4.7e-4 1.2535 0 2.2956-0.85208 2.5153-1.9767h0.19398c1.4961 0 2.709-1.1464 2.709-2.5604 0-1.1298-0.77434-2.0879-1.8484-2.428-0.19265-1.1552-1.2506-2.0388-2.5271-2.0388-0.50317 0-0.97109 0.1392-1.3668 0.37637-0.16617-1.1839-1.2373-2.0977-2.5353-2.0977z"/>
   <path d="m73.582 427.77c-0.89201 0-1.6768 0.43213-2.1347 1.0863-0.13787-0.0217-0.27923-0.0336-0.42372-0.0336-1.413 0-2.5585 1.0826-2.5585 2.4182 0 0.0539 0.0024 0.1072 0.0061 0.16023-1.4291 0.0708-2.5651 1.1884-2.5651 2.5569 0 1.3664 1.1327 2.4827 2.559 2.5564v4e-3c0 1.3354 1.1455 2.4182 2.5585 2.4182 0.15388 0 0.30415-0.0134 0.45057-0.038 0.35413 0.93426 1.2987 1.6027 2.409 1.6027 1.2647 0 2.314-0.86744 2.5207-2.007 0.01253 1.2e-4 0.02494 4.7e-4 0.03757 4.7e-4 1.2535 0 2.2956-0.85208 2.5153-1.9767h0.19398c1.4961 0 2.709-1.1464 2.709-2.5604 0-1.1298-0.77434-2.0879-1.8484-2.428-0.19265-1.1552-1.2506-2.0388-2.5271-2.0388-0.50317 0-0.97109 0.1392-1.3668 0.37637-0.16617-1.1839-1.2373-2.0977-2.5353-2.0977z"/>
   <path d="m315.28 426.62c-0.89201 0-1.6768 0.43213-2.1347 1.0863-0.13787-0.0217-0.27923-0.0336-0.42373-0.0336-1.413 0-2.5585 1.0826-2.5585 2.4182 0 0.0539 2e-3 0.1072 6e-3 0.16023-1.4291 0.0708-2.5651 1.1884-2.5651 2.5569 0 1.3664 1.1327 2.4827 2.559 2.5564v4e-3c0 1.3354 1.1455 2.4182 2.5585 2.4182 0.15389 0 0.30415-0.0134 0.45058-0.038 0.35413 0.93426 1.2987 1.6027 2.409 1.6027 1.2647 0 2.314-0.86744 2.5207-2.007 0.0125 1.2e-4 0.0249 4.7e-4 0.0376 4.7e-4 1.2535 0 2.2956-0.85208 2.5153-1.9767h0.19398c1.4961 0 2.709-1.1464 2.709-2.5604 0-1.1298-0.77434-2.0879-1.8484-2.428-0.19265-1.1552-1.2506-2.0388-2.5271-2.0388-0.50317 0-0.97109 0.1392-1.3668 0.37637-0.16617-1.1839-1.2374-2.0977-2.5353-2.0977z"/>
   <path d="m212.19 416.31c-0.89201 0-1.6768 0.43213-2.1347 1.0863-0.13787-0.0217-0.27923-0.0336-0.42373-0.0336-1.413 0-2.5585 1.0826-2.5585 2.4182 0 0.0539 2e-3 0.1072 6e-3 0.16023-1.4291 0.0708-2.5651 1.1884-2.5651 2.5569 0 1.3664 1.1327 2.4827 2.559 2.5564v4e-3c0 1.3354 1.1455 2.4182 2.5585 2.4182 0.15389 0 0.30415-0.0134 0.45058-0.038 0.35413 0.93426 1.2987 1.6027 2.409 1.6027 1.2647 0 2.314-0.86744 2.5207-2.007 0.0125 1.2e-4 0.0249 4.7e-4 0.0376 4.7e-4 1.2535 0 2.2956-0.85208 2.5153-1.9767h0.19398c1.4961 0 2.709-1.1464 2.709-2.5604 0-1.1298-0.77434-2.0879-1.8484-2.428-0.19265-1.1552-1.2506-2.0388-2.5271-2.0388-0.50317 0-0.97109 0.1392-1.3668 0.37637-0.16617-1.1839-1.2374-2.0977-2.5353-2.0977z"/>
   <path d="m482.52 429.49c-0.89201 0-1.6768 0.43213-2.1347 1.0863-0.13787-0.0217-0.27923-0.0336-0.42373-0.0336-1.413 0-2.5585 1.0826-2.5585 2.4182 0 0.0539 2e-3 0.1072 6e-3 0.16023-1.4291 0.0708-2.5651 1.1884-2.5651 2.5569 0 1.3664 1.1327 2.4827 2.559 2.5564v4e-3c0 1.3354 1.1455 2.4182 2.5585 2.4182 0.15389 0 0.30415-0.0134 0.45058-0.038 0.35413 0.93426 1.2987 1.6027 2.409 1.6027 1.2647 0 2.314-0.86744 2.5207-2.007 0.0125 1.2e-4 0.0249 4.7e-4 0.0376 4.7e-4 1.2535 0 2.2956-0.85208 2.5153-1.9767h0.19398c1.4961 0 2.709-1.1464 2.709-2.5604 0-1.1298-0.77434-2.0879-1.8484-2.428-0.19265-1.1552-1.2506-2.0388-2.5271-2.0388-0.50317 0-0.97109 0.1392-1.3668 0.37637-0.16617-1.1839-1.2374-2.0977-2.5353-2.0977z"/>
  </g>
  <path d="m191.07 430.61c-13.283 0.0792-24.006 15.861-23.951 35.251 5e-3 1.9072 0.1194 3.7769 0.32496 5.6001-10.859 0.58195-19.522 13.642-19.477 29.623 0.0457 16.31 9.1414 29.475 20.313 29.409l78.668-0.46963c11.172-0.0667 20.193-13.34 20.147-29.651-0.0418-14.919-7.6559-27.202-17.504-29.138-2.3675-17.351-12.877-30.397-25.45-30.322-4.7509 0.0283-9.1936 1.9344-13.01 5.2229-4.3386-9.4051-11.71-15.576-20.06-15.526z" stroke-width="1.0863"/>
  <path d="m385.79 404.66c-2.9105 0-5.27 4.242-5.27 9.4756 0 0.15424 2e-3 0.30717 6e-3 0.45968-0.6-0.29759-1.231-0.45968-1.8836-0.45968-3.9084 0-7.077 5.6964-7.077 12.724s3.1686 12.725 7.077 12.725c0.0499 0 0.0994-5e-3 0.14903-7e-3 0.0511 4e-3 0.10202 7e-3 0.15339 7e-3h19.483c0.47398 0.22178 0.97123 0.34072 1.4837 0.34072 3.2496 0 5.8841-4.7374 5.8841-10.58 0-5.8423-2.6345-10.578-5.8841-10.578-0.98722 0-1.917 0.43918-2.7341 1.2117h-0.77058c0-4.73-2.1324-8.565-4.7631-8.565-0.26825 0-0.53118 0.0419-0.78755 0.11856-0.62932-3.9666-2.6585-6.8719-5.0665-6.8719z" stroke-width=".32493"/>
  <path d="m382.33 453.15c-3.3586 0-6.3132 3.5596-8.0378 8.9481-0.51912-0.17904-1.0523-0.27655-1.5963-0.27655-5.3199 0-9.6332 8.9181-9.6332 19.919 0 0.44437 9e-3 0.88311 0.0231 1.3199-5.3806 0.58407-9.6573 9.79-9.6573 21.062 0 11.648 4.5677 21.091 10.201 21.091h39.667c5.6331 0 10.201-9.4431 10.201-21.091 0-9.3062-2.9161-17.2-6.9606-20-0.72539-9.5162-4.7087-16.794-9.5149-16.794-1.8942 0-3.656 1.1475-5.1453 3.0993-0.62565-9.7515-4.6598-17.278-9.5467-17.278z" stroke-width=".65194"/>
  <path d="m350.36 418.99c-11.055 0-20.016 13.351-20.016 29.822 0 0.4854 8e-3 0.96673 0.023 1.4467-2.2789-0.9366-4.6755-1.4467-7.1541-1.4467-14.845 0-26.88 17.928-26.88 40.045s12.035 40.048 26.88 40.048c0.18953 0 0.37736-0.0151 0.56605-0.0207 0.19427 9e-3 0.38749 0.0207 0.5826 0.0207h74.001c1.8003 0.69798 3.6889 1.0723 5.6355 1.0723 12.342 0 22.349-14.91 22.349-33.297s-10.006-33.293-22.349-33.293c-3.7496 0-7.2811 1.3822-10.385 3.8135h-2.9268c0-14.886-8.0994-26.956-18.091-26.956-1.0188 0-2.0175 0.13162-2.9912 0.37297-2.3902-12.484-10.098-21.627-19.243-21.627z" stroke-width="1.1234"/>
  <path d="m281.25 420.63c-1.8701 0-3.5155 0.90595-4.4756 2.2774-0.28905-0.0455-0.58541-0.0704-0.88834-0.0704-2.9624 0-5.3639 2.2698-5.3639 5.0698 0 0.11307 5e-3 0.22475 0.0128 0.33593-2.9962 0.14841-5.3778 2.4914-5.3778 5.3606 0 2.8646 2.3747 5.205 5.3649 5.3596v9e-3c0 2.7997 2.4015 5.0698 5.3639 5.0698 0.32262 0 0.63766-0.0281 0.94463-0.0797 0.74244 1.9587 2.7228 3.36 5.0504 3.36 2.6514 0 4.8514-1.8186 5.2846-4.2077 0.0263 2.5e-4 0.0523 1e-3 0.0788 1e-3 2.6279 0 4.8128-1.7864 5.2732-4.1442h0.40668c3.1366 0 5.6794-2.4034 5.6794-5.368 0-2.3686-1.6234-4.3773-3.8752-5.0903-0.4039-2.422-2.6218-4.2743-5.298-4.2743-1.0549 0-2.0359 0.29182-2.8655 0.78905-0.34837-2.4821-2.5941-4.3979-5.3152-4.3979z" stroke-width=".24542"/>
  <path d="m434.41 434.58c-13.283 0.0765-24.006 15.311-23.951 34.028 5e-3 1.841 0.1194 3.6458 0.32496 5.4058-10.859 0.56175-19.522 13.168-19.477 28.595 0.0457 15.744 9.1414 28.453 20.313 28.388l78.668-0.45334c11.172-0.0644 20.193-12.878 20.147-28.622-0.0418-14.401-7.6559-26.258-17.504-28.127-2.3675-16.749-12.877-29.342-25.45-29.27-4.7509 0.0274-9.1936 1.8673-13.01 5.0417-4.3386-9.0788-11.71-15.035-20.06-14.987z" stroke-width="1.0673"/>
  <path d="m509.94 455.04c-13.283 0.0976-24.006 19.536-23.951 43.418 5e-3 2.349 0.1194 4.6519 0.32496 6.8975-10.859 0.71677-19.522 16.802-19.477 36.486 0.0457 20.088 9.1414 36.304 20.313 36.222l78.668-0.57843c11.172-0.0822 20.193-16.431 20.147-36.52-0.0418-18.375-7.6559-33.504-17.504-35.889-2.3675-21.371-12.877-37.439-25.45-37.347-4.7509 0.0349-9.1936 2.3826-13.01 6.4329-4.3386-11.584-11.71-19.184-20.06-19.123z" stroke-width="1.2056"/>
 </g>
</svg>
