<?xml version="1.0" encoding="UTF-8"?>
<svg style="height:512px;width:512px" version="1.1" viewBox="0 0 512 512" xmlns="http://www.w3.org/2000/svg" xmlns:xlink="http://www.w3.org/1999/xlink">
 <defs>
  <radialGradient id="radialGradient833" cx="257.36" cy="257.12" r="224.39" gradientTransform="matrix(1 0 0 1.0299 0 -7.6834)" gradientUnits="userSpaceOnUse">
   <stop stop-color="#f1c40f" offset="0"/>
   <stop stop-color="#f39c12" offset="1"/>
  </radialGradient>
 </defs>
 <g class="" transform="translate(6.8121 -2.3918)" fill="url(#radialGradient833)" stroke="#000">
  <path d="m102.5 26.03 90.03 345.75 289.22 23.25-90.063-345.75zm-18.906 1.564c-30.466 11.873-55.68 53.098-49.75 75.312l3.25 11.78c0.667-1.76 1.36-3.522 2.093-5.28 9.91-23.706 26.561-46.766 50.377-58.906zm10.844 41.593c-16.657 10.012-29.92 28.077-38 47.407-5.247 12.55-8.038 25.63-8.75 36.53l64.812 235.28c0.294-0.55 0.572-1.106 0.875-1.656 10.603-19.252 27.823-37.695 51.125-48.47l-70.063-269.09zm74.874 287.59c-17.677 9.078-31.145 23.717-39.562 39-4.464 8.107-7.27 16.364-8.688 23.75l11.688 42.408 1.625 0.125c-3.84-27.548 11.352-60.504 41.25-81.094l-6.313-24.19zm26.344 34c-32.567 17.27-46.51 52.44-41.844 72.94l289.84 24.5c-5.34-7.79-8.673-17.947-8.594-28.5l-22.406-9 46.344-7.285-13.5-12.875c5.604-6.917 13.707-13.05 24.813-17.687l-274.66-22.094z" fill="url(#radialGradient833)" stroke="none"/>
 </g>
</svg>
