<?xml version="1.0" encoding="UTF-8" standalone="no"?>
<svg
   style="height: 512px; width: 512px;"
   viewBox="0 0 512 512"
   version="1.1"
   id="svg3151"
   sodipodi:docname="cooking.svg"
   inkscape:version="1.2.1 (9c6d41e410, 2022-07-14)"
   xmlns:inkscape="http://www.inkscape.org/namespaces/inkscape"
   xmlns:sodipodi="http://sodipodi.sourceforge.net/DTD/sodipodi-0.dtd"
   xmlns:xlink="http://www.w3.org/1999/xlink"
   xmlns="http://www.w3.org/2000/svg"
   xmlns:svg="http://www.w3.org/2000/svg">
  <defs
     id="defs3155">
    <linearGradient
       inkscape:collect="always"
       id="linearGradient7386">
      <stop
         style="stop-color:#bdc3c7;stop-opacity:1;"
         offset="0"
         id="stop7382" />
      <stop
         style="stop-color:#7f8c8d;stop-opacity:1;"
         offset="1"
         id="stop7384" />
    </linearGradient>
    <radialGradient
       inkscape:collect="always"
       xlink:href="#linearGradient7386"
       id="radialGradient7388"
       cx="256"
       cy="258"
       fx="256"
       fy="258"
       r="201"
       gradientTransform="matrix(1.2736318,-0.01403067,0.01413943,1.2835042,-73.697724,-69.552233)"
       gradientUnits="userSpaceOnUse" />
  </defs>
  <sodipodi:namedview
     id="namedview3153"
     pagecolor="#ffffff"
     bordercolor="#000000"
     borderopacity="0.25"
     inkscape:showpageshadow="2"
     inkscape:pageopacity="0.0"
     inkscape:pagecheckerboard="0"
     inkscape:deskcolor="#d1d1d1"
     showgrid="false"
     inkscape:zoom="0.70917838"
     inkscape:cx="11.28066"
     inkscape:cy="236.18881"
     inkscape:window-width="1278"
     inkscape:window-height="1360"
     inkscape:window-x="1266"
     inkscape:window-y="0"
     inkscape:window-maximized="0"
     inkscape:current-layer="svg3151" />
  <g
     class=""
     style="fill-opacity:1;fill:url(#radialGradient7388);stroke:#000000;stroke-opacity:1;stroke-width:2;stroke-dasharray:none"
     transform="translate(0,0)"
     id="g3149">
    <path
       d="M256 100c-8 0-16 4-32 12l10.848 32.543C179.665 147.226 112.76 160.04 98.68 183h314.625c-7.012-11.422-27.093-20.334-52.305-26.738V135h-18v17.266c-21.203-4.107-44.4-6.68-65.848-7.723L288 112c-16-8-24-12-32-12zM96 201v14H55v18h41v151c0 16 16 32 32 32h256c16 0 32-16 32-32V233h41v-18h-41v-14H96z"
       fill="#fff"
       fill-opacity="1"
       id="path3147"
       style="fill-opacity:1;fill:url(#radialGradient7388);stroke:#000000;stroke-opacity:1;stroke-width:2;stroke-dasharray:none" />
  </g>
</svg>
