<?xml version="1.0" encoding="UTF-8" standalone="no"?>
<svg
   style="height: 512px; width: 512px;"
   viewBox="0 0 512 512"
   version="1.1"
   id="svg16318"
   sodipodi:docname="crafting.svg"
   inkscape:version="1.2.1 (9c6d41e410, 2022-07-14)"
   xmlns:inkscape="http://www.inkscape.org/namespaces/inkscape"
   xmlns:sodipodi="http://sodipodi.sourceforge.net/DTD/sodipodi-0.dtd"
   xmlns:xlink="http://www.w3.org/1999/xlink"
   xmlns="http://www.w3.org/2000/svg"
   xmlns:svg="http://www.w3.org/2000/svg">
  <defs
     id="defs16322">
    <linearGradient
       inkscape:collect="always"
       id="linearGradient7941">
      <stop
         style="stop-color:#e67e22;stop-opacity:1;"
         offset="0"
         id="stop7937" />
      <stop
         style="stop-color:#f1c40f;stop-opacity:1;"
         offset="1"
         id="stop7939" />
    </linearGradient>
    <linearGradient
       inkscape:collect="always"
       id="linearGradient1733">
      <stop
         style="stop-color:#bdc3c7;stop-opacity:1;"
         offset="0"
         id="stop1729" />
      <stop
         style="stop-color:#7f8c8d;stop-opacity:1;"
         offset="1"
         id="stop1731" />
    </linearGradient>
    <linearGradient
       inkscape:collect="always"
       id="linearGradient16831">
      <stop
         style="stop-color:#e67e22;stop-opacity:1;"
         offset="0"
         id="stop16827" />
      <stop
         style="stop-color:#f1c40f;stop-opacity:1;"
         offset="1"
         id="stop16829" />
    </linearGradient>
    <radialGradient
       inkscape:collect="always"
       xlink:href="#linearGradient16831"
       id="radialGradient16833"
       cx="255.71425"
       cy="256.5"
       fx="255.71425"
       fy="256.5"
       r="236.28575"
       gradientTransform="matrix(1,0,0,1.0068572,0,-1.7588676)"
       gradientUnits="userSpaceOnUse" />
    <radialGradient
       inkscape:collect="always"
       xlink:href="#linearGradient1733"
       id="radialGradient411-1"
       gradientUnits="userSpaceOnUse"
       gradientTransform="matrix(0.65301237,-0.01506002,0.01771118,0.76796819,150.50139,39.890735)"
       cx="260.35748"
       cy="146.1283"
       fx="260.35748"
       fy="146.1283"
       r="236.28575" />
    <radialGradient
       inkscape:collect="always"
       xlink:href="#linearGradient7941"
       id="radialGradient7943"
       cx="198.13467"
       cy="342.18113"
       fx="198.13467"
       fy="342.18113"
       r="117.44262"
       gradientTransform="matrix(1,0,0,1.3258031,0,-111.48369)"
       gradientUnits="userSpaceOnUse" />
  </defs>
  <sodipodi:namedview
     id="namedview16320"
     pagecolor="#ffffff"
     bordercolor="#000000"
     borderopacity="0.25"
     inkscape:showpageshadow="2"
     inkscape:pageopacity="0.0"
     inkscape:pagecheckerboard="0"
     inkscape:deskcolor="#d1d1d1"
     showgrid="false"
     inkscape:zoom="0.70917839"
     inkscape:cx="265.0955"
     inkscape:cy="215.03757"
     inkscape:window-width="1278"
     inkscape:window-height="1360"
     inkscape:window-x="1266"
     inkscape:window-y="0"
     inkscape:window-maximized="0"
     inkscape:current-layer="g16316" />
  <g
     class=""
     style="fill-opacity:1;fill:url(#radialGradient16833)"
     transform="translate(0,0)"
     id="g16316">
    <path
       d="m 261.34367,187.63316 c -117.665,182.384 -194.245002,234 -176.658002,278.062 8.065,20.204 31.467002,36.36 55.218002,28.78 49.34,-15.74 59.974,-94.006 173.094,-278.124 -1.138,-0.075 -2.278,-0.198 -3.406,-0.343 -9.516,-1.22 -18.924,-4.76 -27.313,-9.656 -8.387,-4.895 -15.804,-11.11 -20.874,-18.655 -0.016,-0.024 -0.046,-0.04 -0.062,-0.063 z"
       fill="#fff"
       fill-opacity="1"
       id="path16314"
       style="fill:url(#radialGradient7943);fill-opacity:1;stroke:#000000;stroke-width:1;stroke-dasharray:none;stroke-opacity:1"
       sodipodi:nodetypes="ccccccccc" />
    <path
       d="m 233.12367,21.41417 c -1.155,0 -2.32,0.014 -3.47,0.03 -25.176,0.37 -49.134,5.08 -68.78,13.94 84.13,7.937 156.965,61.77 119.28,122.52999 -2.017,3.254 -4.033,6.445 -6.03,9.625 l 0.47,0.186 c -0.933,2.4 -0.566,5.203 2.343,9.53 2.908,4.33 8.322,9.22 14.75,12.97 6.427,3.752 13.838,6.392 20.28,7.22 5.992,0.768 10.808,-0.054 14,-1.94 1.7,-2.696 3.416,-5.415 5.157,-8.155 21.695,-8.632 57.903,11.51 65.22,29.22 1.34,-14.225 6.522,-29.91 15.342,-45.188 6.697,-11.598 14.627,-21.517 23.157,-29.25 -20.304,7.277 -30.037,-6.764 -38.563,-34.187 -8.197,-26.37999 -36.394,-47.36499 -58.155,-59.84399 -31.287,-17.92 -69.206,-26.65 -105,-26.686 z m 239.03,121.93699 c -4.01,-0.034 -9.278,1.558 -15.592,5.564 -9.622,6.103 -20.325,17.327 -28.688,31.812 -8.363,14.486 -12.713,29.366 -13.188,40.75 -0.474,11.385 2.692,17.85 6.688,20.156 3.996,2.307 11.222,1.823 20.844,-4.28 9.62,-6.104 20.323,-17.297 28.686,-31.782 8.363,-14.485 12.713,-29.365 13.188,-40.75 0.474,-11.385 -2.693,-17.88 -6.688,-20.188 -0.998,-0.576 -2.206,-0.973 -3.594,-1.156 -0.52,-0.068 -1.083,-0.12 -1.656,-0.125 z"
       fill="#fff"
       fill-opacity="1"
       id="path16314-2"
       style="fill:url(#radialGradient411-1);fill-opacity:1;stroke:#000000;stroke-width:1;stroke-dasharray:none;stroke-opacity:1"
       sodipodi:nodetypes="ccccccccccccccccccccccccsccccc" />
  </g>
</svg>
