<?xml version="1.0" encoding="UTF-8" standalone="no"?>
<svg
   style="height: 512px; width: 512px;"
   viewBox="0 0 512 512"
   version="1.1"
   id="svg8"
   sodipodi:docname="crown.svg"
   inkscape:version="1.1.2 (0a00cf5339, 2022-02-04)"
   xmlns:inkscape="http://www.inkscape.org/namespaces/inkscape"
   xmlns:sodipodi="http://sodipodi.sourceforge.net/DTD/sodipodi-0.dtd"
   xmlns:xlink="http://www.w3.org/1999/xlink"
   xmlns="http://www.w3.org/2000/svg"
   xmlns:svg="http://www.w3.org/2000/svg">
  <defs
     id="defs12">
    <linearGradient
       inkscape:collect="always"
       id="linearGradient2515">
      <stop
         style="stop-color:#c0392b;stop-opacity:1"
         offset="0"
         id="stop2511" />
      <stop
         style="stop-color:#e74c3c;stop-opacity:1"
         offset="1"
         id="stop2513" />
    </linearGradient>
    <linearGradient
       inkscape:collect="always"
       id="linearGradient841">
      <stop
         style="stop-color:#e67e22;stop-opacity:1"
         offset="0"
         id="stop837" />
      <stop
         style="stop-color:#f1c40f;stop-opacity:1"
         offset="1"
         id="stop839" />
    </linearGradient>
    <radialGradient
       inkscape:collect="always"
       xlink:href="#linearGradient841"
       id="radialGradient843"
       cx="256.126"
       cy="254.76572"
       fx="256.126"
       fy="254.76572"
       r="238.204"
       gradientTransform="matrix(1,0,0,0.56802455,0,110.05254)"
       gradientUnits="userSpaceOnUse" />
    <radialGradient
       inkscape:collect="always"
       xlink:href="#linearGradient2515"
       id="radialGradient2381"
       gradientUnits="userSpaceOnUse"
       gradientTransform="matrix(1,0,0,0.9231506,15.166104,26.873433)"
       cx="256.12601"
       cy="254.76572"
       fx="256.12601"
       fy="254.76572"
       r="238.20399" />
    <radialGradient
       inkscape:collect="always"
       xlink:href="#linearGradient841"
       id="radialGradient1443"
       gradientUnits="userSpaceOnUse"
       gradientTransform="matrix(1,0,0,0.9231506,15.165102,26.875062)"
       cx="256.126"
       cy="254.76572"
       fx="256.126"
       fy="254.76572"
       r="238.204" />
  </defs>
  <sodipodi:namedview
     id="namedview10"
     pagecolor="#ffffff"
     bordercolor="#666666"
     borderopacity="1.0"
     inkscape:pageshadow="2"
     inkscape:pageopacity="0.0"
     inkscape:pagecheckerboard="0"
     showgrid="false"
     inkscape:zoom="0.90823243"
     inkscape:cx="290.67449"
     inkscape:cy="391.41963"
     inkscape:window-width="1850"
     inkscape:window-height="1136"
     inkscape:window-x="0"
     inkscape:window-y="0"
     inkscape:window-maximized="1"
     inkscape:current-layer="g6" />
  <g
     class=""
     style="fill-opacity:1;fill:url(#radialGradient843)"
     transform="translate(-13,0)"
     id="g6">
    <path
       d="M 509.4951,62.500071 399.6051,253.50111 349.1751,67.452047 274.0131,283.51683 187.0651,69.348643 153.7311,254.81914 33.087102,63.892864 l 39.3,207.374876 c 1.945,-0.56557 3.94,-0.8776 5.98,-0.8776 18.812,0 34.259998,25.1125 34.259998,55.68242 0,22.46507 -8.346,41.96579 -20.234998,50.73858 l 5.337,28.16464 c 12.424998,41.38721 71.862998,73.38079 176.581998,76.71895 110.805,3.53317 178.12,-28.50592 189.854,-76.72058 h -0.002 l 4.357,-32.92644 c -16.836,-3.43567 -30.02,-26.99775 -30.02,-55.23388 0,-30.56992 15.45,-55.68244 34.263,-55.68244 3.513,0 6.91,0.87762 10.11,2.5028 l 26.622,-201.137364 z m -36.732,229.009469 c -8.712,0 -15.575,11.15208 -15.575,25.30754 0,14.15545 6.863,25.31079 15.575,25.31079 8.712,0 15.572,-11.15373 15.572,-25.30916 0,-14.15546 -6.86,-25.30754 -15.572,-25.30754 z m -394.397998,9.25549 c -8.71,0 -15.573,11.15534 -15.573,25.31078 0,14.15545 6.862,25.30916 15.574,25.30916 8.713,0 15.573,-11.15208 15.573,-25.30916 0,-14.15544 -6.86,-25.31078 -15.572,-25.31078 z M 208.6951,329.76175 c 18.812,0 34.26,25.10927 34.26,55.68243 0,30.56991 -15.448,55.67918 -34.26,55.67918 -18.813,0 -34.262,-25.10927 -34.262,-55.67918 0,-30.56992 15.45,-55.68243 34.26,-55.68243 z m 131.234,0 c 18.812,0 34.26,25.10927 34.26,55.68243 0,30.56991 -15.448,55.67918 -34.26,55.67918 -18.813,0 -34.262,-25.10927 -34.262,-55.67918 0,-30.56992 15.45,-55.68243 34.262,-55.68243 z m -131.235,30.3749 c -8.713,0 -15.573,11.14884 -15.573,25.30753 0,14.15546 6.86,25.31078 15.572,25.31078 8.71,0 15.572,-11.15532 15.572,-25.31078 0,-14.15545 -6.86,-25.30916 -15.573,-25.30916 z m 131.234,0 c -8.712,0 -15.573,11.14884 -15.573,25.30753 0,14.15546 6.862,25.31078 15.574,25.31078 8.712,0 15.574,-11.15532 15.574,-25.31078 0,-14.15545 -6.862,-25.30916 -15.574,-25.30916 z"
       fill="#fff"
       fill-opacity="1"
       id="path4"
       style="fill:url(#radialGradient1443);fill-opacity:1;stroke-width:1.27483"
       sodipodi:nodetypes="ccccccccssccccccssccccsssccssssssssssssssssscssscccssscc" />
    <path
       d="m 464.1661,404.97252 c -286.27186,-642.15182 -143.13593,-321.075896 0,0 z m 8.598,-113.46461 c -8.712,0 -15.575,11.1521 -15.575,25.30754 0,14.15545 6.863,25.31079 15.575,25.31079 8.712,0 15.572,-11.15371 15.572,-25.30916 0,-14.15546 -6.86,-25.30754 -15.572,-25.30754 z M 78.366104,300.7634 c -8.71,0 -15.573,11.15534 -15.573,25.31079 0,14.15544 6.862,25.30916 15.574,25.30916 8.713,0 15.573,-11.15209 15.573,-25.30916 0,-14.15545 -6.86,-25.31079 -15.572,-25.31079 z M 242.9561,385.44256 c -138.79852,-629.13183 -69.39926,-314.565925 0,0 z m -34.261,-25.30754 c -8.713,0 -15.573,11.14884 -15.573,25.30754 0,14.15545 6.86,25.31079 15.572,25.31079 8.71,0 15.572,-11.15534 15.572,-25.31079 0,-14.15546 -6.86,-25.30917 -15.573,-25.30917 z m 131.234,0 c -8.712,0 -15.573,11.14884 -15.573,25.30754 0,14.15545 6.862,25.31079 15.574,25.31079 8.712,0 15.574,-11.15534 15.574,-25.31079 0,-14.15546 -6.862,-25.30917 -15.574,-25.30917 z"
       fill="#fff"
       fill-opacity="1"
       id="path4-5"
       style="fill:url(#radialGradient2381);fill-opacity:1;stroke-width:1.27483"
       sodipodi:nodetypes="cccsssccsssssscccssscccssscc" />
  </g>
</svg>
