<?xml version="1.0" encoding="UTF-8" standalone="no"?>
<svg
   style="height: 512px; width: 512px;"
   viewBox="0 0 512 512"
   version="1.1"
   id="svg8"
   sodipodi:docname="defense.svg"
   inkscape:version="1.2.1 (9c6d41e410, 2022-07-14)"
   xmlns:inkscape="http://www.inkscape.org/namespaces/inkscape"
   xmlns:sodipodi="http://sodipodi.sourceforge.net/DTD/sodipodi-0.dtd"
   xmlns:xlink="http://www.w3.org/1999/xlink"
   xmlns="http://www.w3.org/2000/svg"
   xmlns:svg="http://www.w3.org/2000/svg">
  <defs
     id="defs12">
    <linearGradient
       inkscape:collect="always"
       id="linearGradient5192">
      <stop
         style="stop-color:#bdc3c7;stop-opacity:1;"
         offset="0"
         id="stop5188" />
      <stop
         style="stop-color:#7f8c8d;stop-opacity:1;"
         offset="1"
         id="stop5190" />
    </linearGradient>
    <linearGradient
       inkscape:collect="always"
       id="linearGradient21714">
      <stop
         style="stop-color:#3498db;stop-opacity:1;"
         offset="0"
         id="stop21710" />
      <stop
         style="stop-color:#2980b9;stop-opacity:1;"
         offset="1"
         id="stop21712" />
    </linearGradient>
    <radialGradient
       inkscape:collect="always"
       xlink:href="#linearGradient21714"
       id="radialGradient21716"
       cx="257.48528"
       cy="255.32373"
       fx="257.48528"
       fy="255.32373"
       r="208.09112"
       gradientTransform="matrix(1,0,0,1.130364,0,-33.28503)"
       gradientUnits="userSpaceOnUse" />
    <radialGradient
       inkscape:collect="always"
       xlink:href="#linearGradient5192"
       id="radialGradient5194"
       cx="257.3425"
       cy="255.2825"
       fx="257.3425"
       fy="255.2825"
       r="208.4375"
       gradientTransform="matrix(1,0,0,1.1304324,0,-33.297105)"
       gradientUnits="userSpaceOnUse" />
  </defs>
  <sodipodi:namedview
     id="namedview10"
     pagecolor="#ffffff"
     bordercolor="#000000"
     borderopacity="0.25"
     inkscape:showpageshadow="2"
     inkscape:pageopacity="0.0"
     inkscape:pagecheckerboard="0"
     inkscape:deskcolor="#d1d1d1"
     showgrid="false"
     inkscape:zoom="0.35355339"
     inkscape:cx="-67.882251"
     inkscape:cy="309.71277"
     inkscape:window-width="1278"
     inkscape:window-height="1360"
     inkscape:window-x="1266"
     inkscape:window-y="0"
     inkscape:window-maximized="0"
     inkscape:current-layer="svg8" />
  <path
     style="fill:url(#radialGradient5194);fill-opacity:1;stroke-width:0"
     d="m 48.905,19.658 c 133.33479,41.255217 271.31205,48.452519 416.875,0 C 455.39719,212.22497 443.11175,413.85887 258.062,490.907 175.84282,369.87104 68.256325,351.07736 48.905,19.658 Z"
     id="path4800"
     sodipodi:nodetypes="cccc" />
  <g
     class=""
     style=""
     transform="translate(0,0)"
     id="g6">
    <path
       d="M48.906 19.656v10.782c0 103.173 10.53 206.07 41.313 289.53 30.78 83.463 82.763 148.094 164.53 170.563l2.188.626 2.25-.5c89.686-19.12 142.322-84.028 171.187-168.344 28.865-84.315 35.406-188.656 35.406-291.875v-10.78l-10.655 1.53C323.26 39.954 191.452 40 59.595 21.188l-10.69-1.53zM67.75 41.03c63.242 8.536 126.495 12.792 189.75 12.782v184.532h174.78c-4.905 27.572-11.31 53.747-19.592 77.937-27.348 79.884-73.757 137.33-155.157 155.564-.008-.003-.02.003-.03 0v-233.5H86.53c-12.87-60.99-18.277-128.81-18.78-197.313z"
       fill="#fff"
       fill-opacity="1"
       id="path4" />
  </g>
  <path
     style="fill:url(#radialGradient21716);stroke-width:1;fill-opacity:1;stroke:#000000;stroke-opacity:1;stroke-dasharray:none"
     d="M 249.51898,488.32952 C 213.78379,477.10446 184.17128,458.8451 158.037,431.92084 101.06798,373.22976 66.281983,276.21192 54.115171,142.08374 51.531241,113.59822 50.45289,92.345161 49.852932,58.079843 49.270965,24.842077 49.255278,19.820851 49.734325,20.116919 c 0.572137,0.3536 12.808503,2.057466 32.524681,4.528934 38.075744,4.77288 62.801044,6.912051 113.916264,9.855746 15.12946,0.871297 107.40042,0.87076 122.64069,-6.98e-4 57.57581,-3.292328 101.42267,-7.484842 140.93231,-13.475568 l 5.82813,-0.8837 -0.21246,7.253429 c -0.11684,3.989385 -0.32898,18.358394 -0.47141,31.93113 -1.66768,158.923518 -23.98545,265.499288 -70.41639,336.264848 -11.92575,18.17608 -22.38289,30.5813 -37.52191,44.51197 -25.76582,23.70926 -54.43551,38.95063 -90.61385,48.17209 -4.9364,1.25823 -9.17025,2.2785 -9.40855,2.26726 -0.23831,-0.0112 -3.57409,-1.00702 -7.41285,-2.21284 z m 16.7427,-18.18438 c 23.83394,-6.53847 43.29873,-15.53168 61.8666,-28.58387 45.88394,-32.25389 78.97122,-89.60377 97.56552,-169.10947 1.90184,-8.13191 7.03842,-32.71298 7.03842,-33.68231 0,-0.28939 -33.35114,-0.46764 -87.49367,-0.46764 H 257.74488 V 145.82278 53.343719 l -1.62025,-0.0082 c -0.89114,-0.0045 -13.39825,-0.229971 -27.79357,-0.50104 -49.03268,-0.923306 -91.07485,-3.917327 -144.158805,-10.266228 -8.4075,-1.005546 -15.675661,-1.678879 -16.15147,-1.496294 -0.805005,0.30891 -0.841394,1.361515 -0.523776,15.150936 1.596006,69.290787 6.96903,124.258467 17.164483,175.597927 l 1.33656,6.73029 85.624148,0.12605 85.62415,0.12606 v 116.6568 c 0,112.79317 0.0303,116.65681 0.91407,116.65681 0.50273,0 4.1483,-0.88727 8.10126,-1.9717 z"
     id="path15664" />
</svg>
