<?xml version="1.0" encoding="UTF-8" standalone="no"?>
<svg
   style="height: 512px; width: 512px;"
   viewBox="0 0 512 512"
   version="1.1"
   id="svg25622"
   sodipodi:docname="fishing.svg"
   inkscape:version="1.2.1 (9c6d41e410, 2022-07-14)"
   xmlns:inkscape="http://www.inkscape.org/namespaces/inkscape"
   xmlns:sodipodi="http://sodipodi.sourceforge.net/DTD/sodipodi-0.dtd"
   xmlns:xlink="http://www.w3.org/1999/xlink"
   xmlns="http://www.w3.org/2000/svg"
   xmlns:svg="http://www.w3.org/2000/svg">
  <defs
     id="defs25626">
    <linearGradient
       inkscape:collect="always"
       id="linearGradient1743">
      <stop
         style="stop-color:#bdc3c7;stop-opacity:1;"
         offset="0"
         id="stop1739" />
      <stop
         style="stop-color:#7f8c8d;stop-opacity:1;"
         offset="1"
         id="stop1741" />
    </linearGradient>
    <linearGradient
       inkscape:collect="always"
       id="linearGradient59915">
      <stop
         style="stop-color:#e74c3c;stop-opacity:1;"
         offset="0"
         id="stop59911" />
      <stop
         style="stop-color:#c0392b;stop-opacity:1;"
         offset="1"
         id="stop59913" />
    </linearGradient>
    <radialGradient
       inkscape:collect="always"
       xlink:href="#linearGradient59915"
       id="radialGradient315"
       gradientUnits="userSpaceOnUse"
       gradientTransform="matrix(0.97017466,-0.00270316,0.00235726,0.84605073,4.8948488,-85.564677)"
       cx="270.86679"
       cy="451.49051"
       fx="270.86679"
       fy="451.49051"
       r="233.1885" />
    <radialGradient
       inkscape:collect="always"
       xlink:href="#linearGradient1743"
       id="radialGradient315-5"
       gradientUnits="userSpaceOnUse"
       gradientTransform="matrix(0.83294142,-0.02543339,0.03159481,1.0347269,59.957554,-16.498586)"
       cx="477.81076"
       cy="133.55484"
       fx="477.81076"
       fy="133.55484"
       r="233.18851" />
  </defs>
  <sodipodi:namedview
     id="namedview25624"
     pagecolor="#ffffff"
     bordercolor="#000000"
     borderopacity="0.25"
     inkscape:showpageshadow="2"
     inkscape:pageopacity="0.0"
     inkscape:pagecheckerboard="0"
     inkscape:deskcolor="#d1d1d1"
     showgrid="false"
     inkscape:zoom="0.3545892"
     inkscape:cx="160.7494"
     inkscape:cy="923.60399"
     inkscape:window-width="1278"
     inkscape:window-height="1360"
     inkscape:window-x="1266"
     inkscape:window-y="0"
     inkscape:window-maximized="0"
     inkscape:current-layer="svg25622" />
  <path
     d="m 191.97,142.678 -14.505,0.052 6.484,12.97 c 11.004,22.014 13.562,44.94 6.306,70.484 16.372,-7.893 32.52,-14.514 47.04,-19.09 17.127,-5.4 34.613,-8.823 52.304,-10.633 -9.637,-11.92 -19.864,-24.137 -33.348,-34.056 -16.005,-11.772 -36.664,-19.825 -64.283,-19.726 z M 321.173,212.9 c -26.903,-0.003 -53.246,3.41 -78.47,11.362 -29.805,9.395 -69.467,29.167 -100.985,50.238 -15.76,10.536 -29.53,21.437 -38.99,31.195 -9.458,9.76 -13.73,18.572 -13.73,21.983 0,1.115 0.658,3.355 3.328,6.55 2.67,3.192 7.133,7.02 12.975,10.918 11.683,7.798 28.768,15.954 48.064,23.338 10.86,4.156 22.445,8.07 34.225,11.647 4.63,-5.44 9.13,-10.773 13.082,-15.685 4.6,-5.715 8.51,-10.923 11.09,-14.957 1.933,-3.025 2.8,-5.784 3.103,-6.27 0.1,-0.164 0.138,-0.074 0.133,0.343 l 18,0.235 c -0.085,6.563 -2.86,10.362 -6.07,15.387 -3.212,5.024 -7.426,10.575 -12.233,16.548 -4.236,5.265 -9.016,10.898 -13.816,16.536 17.5,-3.984 36.32,-7.97 52.87,-12.55 12.883,-3.567 24.274,-7.546 31.738,-11.62 7.465,-4.075 9.47,-7.418 9.518,-8.744 l 17.988,0.654 c -0.408,11.207 -9.133,18.567 -18.883,23.89 -9.6,5.24 -21.69,9.302 -34.956,12.995 4.813,0.746 9.442,1.37 13.81,1.84 28.785,3.106 68.376,3.102 102.03,-1.568 16.827,-2.335 32.197,-5.863 43.777,-10.45 5.082,-2.014 9.168,-4.26 12.53,-6.534 -12.215,-3.44 -26.56,-7.368 -41.294,-13.414 -20.51,-8.417 -40.92,-20.97 -46.713,-43.135 -3.522,-13.476 2.455,-25.923 10.693,-35.452 8.24,-9.53 19.04,-17.607 28.994,-25.555 9.954,-7.948 18.976,-15.81 23.584,-22.865 3.85,-5.896 5.066,-10.28 2.94,-16.24 -27.796,-6.15 -55.635,-10.113 -82.942,-10.573 -1.798,-0.03 -3.595,-0.044 -5.388,-0.045 z m -307.55,24.39 11.028,15.585 c 25.106,35.484 28.82,103.86 19.66,151.705 l -2.911,15.203 14.653,-4.99 c 31.135,-10.605 49.9,-25.726 63.056,-41.373 -8.873,-4.267 -16.915,-8.706 -23.8,-13.3 C 88.537,355.6 82.846,350.95 78.517,345.77 74.188,340.594 71,334.563 71,327.68 c 0,-12.59 7.967,-23.33 18.807,-34.512 4.653,-4.8 10.03,-9.647 15.92,-14.486 -18.32,-23.38 -43.376,-37.776 -73.06,-39.977 l -19.042,-1.412 z m 332.317,10.388 c 8.83656,0 16,7.16344 16,16 0,8.83656 -7.16344,16 -16,16 -8.83656,0 -16,-7.16344 -16,-16 0,-8.83656 7.16344,-16 16,-16 z"
     fill="#fff"
     fill-opacity="1"
     id="path25618"
     style="fill:url(#radialGradient315);fill-opacity:1;stroke:#000000;stroke-opacity:1;stroke-width:2;stroke-dasharray:none"
     sodipodi:nodetypes="cccccccccccccscccccccccccccccccccscccscscccccccccccccscccccsssss" />
  <path
     d="M 452.64751,36.393384 V 234.86338 c -4.37296,2.97508 -6.99313,7.91897 -7,13.208 9.1e-4,5.2954 2.62178,10.24734 7,13.226 v 66.774 c 0,5.75 -1.877,8.85 -4.262,10.836 -2.384,1.987 -5.657,2.887 -9.258,2.287 -7.16,-1.193 -16.37,-8.05 -16.474,-28.77 h 15.533 l -31.606,-42.997 -1.914,42.645 h -0.019 c 0,0.106 0.005,0.21 0.006,0.316 l -0.002,0.035 h 0.002 c 0.128,26.794 14.79,43.74 31.514,46.527 8.4,1.4 17.126,-0.702 23.742,-6.215 6.615,-5.512 10.738,-14.414 10.738,-24.664 v -66.79 c 4.37355,-2.97548 6.9938,-7.92026 7,-13.21 -5.8e-4,-5.29575 -2.62148,-10.24814 -7,-13.227 V 36.393384 Z"
     fill="#fff"
     fill-opacity="1"
     id="path25618-4"
     style="fill:url(#radialGradient315-5);fill-opacity:1;stroke:#000000;stroke-opacity:1;stroke-width:2;stroke-dasharray:none"
     sodipodi:nodetypes="ccccscsccccccccsssccccc" />
</svg>
