<?xml version="1.0" encoding="UTF-8"?>
<!-- Created with Inkscape (http://www.inkscape.org/) -->
<svg width="100mm" height="100mm" version="1.1" viewBox="0 0 100 100" xmlns="http://www.w3.org/2000/svg">
 <rect width="100" height="100" fill="#27ae60"/>
 <g fill="#2fb660">
  <path d="m29.992 47.512-3.1971-8.2673 8.5872 1.1633z" fill="#cd6133"/>
  <path d="m54.718 21.485-3.1971-8.2673 8.5872 1.1633z"/>
  <path d="m48.789 46.356-3.1971-8.2673 8.5872 1.1633z" fill="#cd6133"/>
  <path d="m40.946 55.321-3.1971-8.2673 8.5872 1.1633z"/>
  <g>
   <path d="m3.8199 7.6467 4.6654-4.5637 1.5851 6.1879z" fill="#2fb668"/>
   <path d="m11.07 2.5048 7.3125-5.0096 0.83905 8.6249z" fill="#cd6133"/>
   <path d="m18.418 19.101 7.3125-5.0096 0.83905 8.6249z" fill="#cd6133"/>
  </g>
  <path d="m9.4965 28.885-0.4259-8.8537 7.7817 3.8128z"/>
  <path d="m19.237 41.01-0.4259-8.8537 7.7817 3.8128z" fill="#2fb668"/>
  <path d="m47.867 35.081-0.4259-8.8537 7.7817 3.8128z" fill="#2fb668"/>
  <path d="m46.535 6.9473-0.4259-8.8537 7.7817 3.8128z"/>
  <path d="m30.37 27.273-0.4259-8.8537 7.7817 3.8128z"/>
  <path d="m4.054 43.179-0.4259-8.8537 7.7817 3.8128z"/>
  <path d="m29.218-1.8077 7.3125-5.0096 0.83905 8.6249z"/>
  <path d="m39.276 18.488 7.3125-5.0096 0.83905 8.6249z" fill="#cd6133"/>
  <path d="m31.403 33.109 7.3125-5.0096 0.83905 8.6249z"/>
  <path d="m7.9891 48.139 7.3125-5.0096 0.83905 8.6249z" fill="#cd6133"/>
  <path d="m21.885 13.609 1.4682-5.6273 3.76 4.0154z" fill="#2fb668"/>
  <path d="m30.697 14.926 1.4682-5.6273 3.76 4.0154z"/>
  <path d="m38.713 11.327 1.4682-5.6273 3.76 4.0154z"/>
  <path d="m28.988 7.8299 1.4682-5.6273 3.76 4.0154z" fill="#cd6133"/>
  <path d="m50.118 12.272 1.4682-5.6273 3.76 4.0154z" fill="#2fb668"/>
  <path d="m20.955 30.865 1.4682-5.6273 3.76 4.0154z"/>
  <path d="m23.89 4.9282-2.9042-5.0387 5.4966 0.22083z"/>
  <path d="m14.76 16.256-2.9042-5.0387 5.4966 0.22083z"/>
  <path d="m14.182 35.343-2.9042-5.0387 5.4966 0.22083z" fill="#cd6133"/>
  <path d="m43.101 28.547-2.9042-5.0387 5.4966 0.22083z" fill="#4fb660"/>
  <path d="m39.631 46.187-2.9042-5.0387 5.4966 0.22083z"/>
  <path d="m3.5101 61.138 1.4682-5.6273 3.76 4.0154z" fill="#2fb668"/>
  <path d="m61.189 86.49 1.83-8.6729 6.5626 5.6591z" fill="#2fb668"/>
  <path d="m77.574 95.774 1.83-8.6729 6.5626 5.6591z"/>
  <path d="m63.028 96.157-6.4312-6.0999 8.2574-2.6285z" fill="#cd6133"/>
  <path d="m60.999 38.802 6.3996-1.2801-2.0468 6.0509z" fill="#cd6133"/>
  <path d="m87.367-1.5089 6.3996-1.2801-2.0468 6.0509z"/>
  <path d="m54.179 44.945 7.7794-3.5812-0.60422 8.3507z"/>
  <g>
   <path d="m68.214 42.092 8.8614-0.20987-4.0014 7.6864z" fill="#2fb668"/>
   <path d="m66.986 56.365 8.8614-0.20987-4.0014 7.6864z" fill="#2fb668"/>
   <path d="m54.172 59.699 4.4725-7.6528 4.4423 7.4404z" fill="#cd6133"/>
  </g>
  <path d="m55.722 75.174 4.4725-7.6528 4.4423 7.4404z"/>
  <path d="m82.951 85.822 4.4725-7.6528 4.4423 7.4404z" fill="#2fb668"/>
  <path d="m95.804 91.555 4.4725-7.6528 4.4423 7.4403z"/>
  <path d="m72.546 69.734 4.4725-7.6528 4.4423 7.4404z"/>
  <path d="m41.814 68.71 4.4725-7.6528 4.4423 7.4403z" fill="#2fb668"/>
  <path d="m82.848 52.049 8.8614-0.20987-4.0014 7.6864z"/>
  <g fill="#cd6133">
   <path d="m84.802 67.228 8.8614-0.20987-4.0014 7.6864z"/>
   <path d="m70.228 75.188 8.8614-0.20987-4.0014 7.6864z"/>
   <path d="m42.406 75.013 8.8614-0.20987-4.0014 7.6864z"/>
   <path d="m72.887 53.653 4.3001-3.9156 0.96108 5.4164z"/>
  </g>
  <path d="m78.52 62.381 4.3001-3.9156 0.96108 5.4164z"/>
  <path d="m93.966 67.418 4.3001-3.9156 0.96108 5.4164z" fill="#2fb668"/>
  <path d="m97.276 74.039 4.3001-3.9156 0.96109 5.4164z"/>
  <path d="m91.293 60.515 4.3001-3.9156 0.96108 5.4164z"/>
  <path d="m62.695 67.609 4.3001-3.9156 0.96108 5.4164z"/>
  <path d="m79.406 50.379 0.3144-5.8072 4.4864 3.1833z"/>
  <path d="m65.472 51.985 0.3144-5.8072 4.4864 3.1833z"/>
  <path d="m54.576 67.667 0.3144-5.8072 4.4864 3.1833z"/>
  <path d="m82.521 77.745 0.3144-5.8072 4.4864 3.1833z"/>
  <path d="m69.99 90.638 0.3144-5.8072 4.4864 3.1833z"/>
  <path d="m47.929 56.101 4.3001-3.9156 0.96108 5.4164z"/>
  <path d="m49.98 85.973 4.3001-3.9156 0.96108 5.4164z"/>
  <path d="m33.496 78.279 4.3001-3.9156 0.96108 5.4164z"/>
  <path d="m88.115 36.922 1.83-8.6729 6.5626 5.6591z" fill="#2fb668"/>
  <path d="m89.552 47.173 1.83-8.6729 6.5626 5.6591z"/>
  <path d="m81.098 10.131 4.4725-7.6528 4.4423 7.4404z"/>
  <path d="m82.648 25.605 4.4725-7.6528 4.4423 7.4404z"/>
  <g>
   <path d="m95.331 18.487 4.4725-7.6528 4.4423 7.4404z" fill="#cd6133"/>
   <path d="m68.74 19.142 4.4725-7.6528 4.4423 7.4403z" fill="#2fb668"/>
   <path d="m69.332 25.445 8.8614-0.20987-4.0014 7.6864z" fill="#cd6133"/>
   <path d="m64.854-3.6334 8.8614-0.20987-4.0014 7.6864z" fill="#2fb668"/>
  </g>
  <path d="m89.622 18.041 4.3001-3.9156 0.96108 5.4164z"/>
  <path d="m81.503 18.098 0.3144-5.8072 4.4864 3.1833z" fill="#cd6133"/>
  <path d="m74.856 6.5328 4.3001-3.9156 0.96108 5.4164z"/>
  <path d="m77.537 35.019 4.3001-3.9156 0.96108 5.4164z"/>
  <path d="m67.955 36.677 4.3001-3.9156 0.96108 5.4164z"/>
  <path d="m82.379 42.825 4.3001-3.9156 0.96108 5.4164z" fill="#cd6133"/>
  <path d="m97.276 27.219 4.3001-3.9156 0.96109 5.4164z" fill="#2fb668"/>
  <path d="m95.03 39.87 4.3001-3.9156 0.96108 5.4164z"/>
  <path d="m60.422 28.711 4.3001-3.9156 0.96108 5.4164z"/>
  <g fill="#cd6133">
   <path d="m52.38 25.62 4.3001-3.9156 0.96108 5.4164z"/>
   <path d="m60.908 19.935 4.3001-3.9156 0.96108 5.4164z"/>
   <path d="m19.303 95.796 1.83-8.6729 6.5626 5.6591z"/>
  </g>
  <path d="m12.293 54.251 7.7794-3.5812-0.60422 8.3507z"/>
  <path d="m26.328 51.397 8.8614-0.20987-4.0014 7.6864z"/>
  <g>
   <path d="m25.1 65.67 8.8614-0.20987-4.0014 7.6864z" fill="#cd6133"/>
   <path d="m12.286 69.004 4.4725-7.6528 4.4423 7.4404z" fill="#2fb668"/>
   <path d="m13.836 84.479 4.4725-7.6528 4.4423 7.4404z" fill="#2fb668"/>
   <path d="m54.922 75.161 4.4725-7.6528 4.4423 7.4404z" fill="#cd6133"/>
  </g>
  <path d="m-0.07232 78.015 4.4725-7.6528 4.4423 7.4403z"/>
  <path d="m28.343 84.493 8.8614-0.20987-4.0014 7.6864z"/>
  <path d="m2.7774 80.724 8.8614-0.20987-4.0014 7.6864z" fill="#cd6133"/>
  <path d="m35.189 61.243 4.3001-3.9156 0.96108 5.4164z" fill="#cd6133"/>
  <path d="m33.962 69.376 4.3001-3.9156 0.96108 5.4164z"/>
  <path d="m20.809 76.914 4.3001-3.9156 0.96108 5.4164z"/>
  <path d="m23.503 62.795 0.3144-5.8072 4.4864 3.1833z"/>
  <path d="m12.69 76.972 0.3144-5.8072 4.4864 3.1833z"/>
  <path d="m40.635 87.051 0.31441-5.8072 4.4864 3.1833z"/>
  <path d="m37.858 95.244 0.31441-5.8072 4.4864 3.1833z" fill="#2fb668"/>
  <path d="m58.63 7.9198 0.31441-5.8072 4.4864 3.1833z" fill="#cd6133"/>
  <path d="m55.179 1.3666 0.31441-5.8072 4.4864 3.1833z"/>
  <path d="m66.656 14.775 0.31441-5.8072 4.4864 3.1833z"/>
  <path d="m93.911 8.923 0.31441-5.8072 4.4864 3.1833z" fill="#2fb668"/>
  <path d="m80.599 3.1401 0.31441-5.8072 4.4864 3.1833z" fill="#cd6133"/>
  <path d="m93.911 81.491 0.31441-5.8072 4.4864 3.1833z"/>
  <path d="m90.232 94.199 0.31441-5.8072 4.4864 3.1833z" fill="#cd6133"/>
  <path d="m97.861 100.45 0.31441-5.8072 4.4864 3.1833z"/>
  <path d="m45.755 94.366 0.31441-5.8072 4.4864 3.1833z" fill="#cd6133"/>
  <path d="m6.0436 65.406 4.3001-3.9156 0.96108 5.4164z" fill="#cd6133"/>
  <path d="m8.7246 93.892 4.3001-3.9156 0.96108 5.4164z"/>
  <path d="m94.649 48.035 8.8614-0.20987-4.0014 7.6864z" fill="#cd6133"/>
  <path d="m-4.1957 91.555 4.4725-7.6528 4.4423 7.4404z"/>
  <path d="m-2.7236 74.039 4.3001-3.9156 0.96109 5.4164z"/>
  <path d="m-4.6686 18.487 4.4725-7.6528 4.4423 7.4404z" fill="#cd6133"/>
  <path d="m-2.7236 27.219 4.3001-3.9156 0.96109 5.4164z" fill="#2fb668"/>
  <path d="m-4.97 39.87 4.3001-3.9156 0.96108 5.4164z"/>
  <path d="m-2.1387 100.45 0.31441-5.8072 4.4864 3.1834z"/>
  <path d="m-5.3513 48.035 8.8614-0.20987-4.0014 7.6864z" fill="#cd6133"/>
  <path d="m11.07 102.51 7.3125-5.0096 0.83905 8.6249z" fill="#4fb660"/>
  <path d="m46.535 106.95-0.42589-8.8537 7.7817 3.8128z"/>
  <path d="m29.218 98.193 7.3125-5.0096 0.83905 8.6249z"/>
  <path d="m23.89 104.93-2.9042-5.0386 5.4966 0.22083z"/>
  <path d="m87.367 98.491 6.3996-1.2801-2.0468 6.0509z" fill="#2fb660"/>
  <path d="m64.854 96.367 8.8614-0.20987-4.0014 7.6864z" fill="#2fb668"/>
  <path d="m55.179 101.37 0.31441-5.8072 4.4864 3.1834z"/>
  <path d="m80.599 103.14 0.31441-5.8072 4.4864 3.1834z" fill="#4fb660"/>
 </g>
</svg>
