<?xml version="1.0" encoding="UTF-8" standalone="no"?>
<svg
   style="height: 512px; width: 512px;"
   viewBox="0 0 512 512"
   version="1.1"
   id="svg973"
   sodipodi:docname="glove_slot.svg"
   inkscape:version="1.1.2 (0a00cf5339, 2022-02-04)"
   xmlns:inkscape="http://www.inkscape.org/namespaces/inkscape"
   xmlns:sodipodi="http://sodipodi.sourceforge.net/DTD/sodipodi-0.dtd"
   xmlns="http://www.w3.org/2000/svg"
   xmlns:svg="http://www.w3.org/2000/svg">
  <defs
     id="defs977" />
  <sodipodi:namedview
     id="namedview975"
     pagecolor="#ffffff"
     bordercolor="#666666"
     borderopacity="1.0"
     inkscape:pageshadow="2"
     inkscape:pageopacity="0.0"
     inkscape:pagecheckerboard="0"
     showgrid="false"
     inkscape:zoom="1.01876"
     inkscape:cx="62.330674"
     inkscape:cy="426.49886"
     inkscape:window-width="1850"
     inkscape:window-height="1136"
     inkscape:window-x="0"
     inkscape:window-y="0"
     inkscape:window-maximized="1"
     inkscape:current-layer="svg973" />
  <g
     class=""
     style="fill:#555555;fill-opacity:1"
     transform="translate(5.4775786,-4.7162112)"
     id="g971">
    <path
       d="m 215.75,21.063 c -1.306,0 -2.582,0.045 -3.813,0.125 -1.964,0.127 -3.778,0.385 -5.5,0.718 L 171.47,82.5 c 4.257,-1.103 8.72,-1.688 13.31,-1.688 21.424,0 39.93,12.778 48.407,31.094 l 39.188,-67.844 c -4.546,-5.766 -14.702,-13.066 -26.97,-17.53 -9.74,-3.546 -20.516,-5.473 -29.655,-5.47 z m 85.72,17.53 c -1.583,-0.03 -3.07,0.047 -4.47,0.188 l -44.53,77.157 c 4.825,-1.446 9.935,-2.25 15.218,-2.25 20.817,0 38.924,12.05 47.718,29.532 l 43.156,-74.782 c -4.125,-6.924 -13.916,-15.663 -25.78,-21.532 -10.44,-5.163 -22.204,-8.138 -31.313,-8.312 z m -162.5,29.344 c -10.902,0.22 -21.355,4.083 -32.5,12.22 C 96.044,87.766 85.3,99.3 74.187,114.5 L 122,130.78 156.656,70.75 c -5.398,-1.782 -10.563,-2.693 -15.5,-2.813 -0.73,-0.017 -1.46,-0.014 -2.187,0 z M 370.312,85.5 325.5,163.156 c 5.325,-1.817 11.015,-2.844 16.938,-2.844 20.334,0 38.045,11.61 46.906,28.532 l 36.97,-64 c -3.564,-8.5 -12.897,-19.255 -24.19,-27.03 C 391.22,90.3 378.678,85.84 370.313,85.5 Z m -185.532,14 c -19.27,0 -34.718,15.448 -34.718,34.75 0,19.302 15.45,34.75 34.72,34.75 19.27,0 34.687,-15.445 34.687,-34.75 0,-19.302 -15.418,-34.75 -34.69,-34.75 z M 58.53,128.938 c -10.26,50.49 -9.262,102.094 6.065,146.062 0.186,0.536 0.372,1.06 0.562,1.594 l 0.188,-0.22 7.125,10.22 c 0.872,1.25 1.81,2.52 2.78,3.78 -0.837,-41.212 10.51,-89.245 37.438,-143 L 58.53,128.94 Z m 209.157,3.437 c -19.27,0 -34.687,15.416 -34.687,34.72 0,19.3 15.417,34.75 34.688,34.75 19.27,0 34.718,-15.446 34.718,-34.75 0,-19.304 -15.448,-34.72 -34.72,-34.72 z m 169.282,12.688 -41.783,72.375 c -0.048,0.614 -0.087,1.235 -0.156,1.843 4.283,-1.206 8.784,-1.874 13.44,-1.874 21.296,0 39.572,13.55 46.717,32.438 l 36.532,-63.25 c -3.43,-8.86 -12.62,-20.092 -23.783,-28.313 -10.62,-7.82 -22.842,-12.6 -30.968,-13.218 z m -303.72,3.218 C 99.888,212.04 89.896,266.26 95.344,308.876 c 0.133,1.044 0.286,2.063 0.437,3.094 20.05,17.924 47.18,35.918 76.25,51.717 40.17,21.83 84.096,39.88 118.064,50.125 42.028,-15.246 84.304,-46.497 119.156,-96.468 -0.26,0.004 -0.52,0.03 -0.78,0.03 -27.474,0 -49.94,-22.483 -49.94,-49.968 0,-1.24 0.068,-2.468 0.158,-3.687 -5.125,1.664 -10.587,2.592 -16.25,2.592 -28.306,0 -51.592,-22.493 -52.907,-50.5 -6.677,3.02 -14.068,4.72 -21.842,4.72 -25.675,0 -47.22,-18.35 -52.25,-42.595 -8.685,6.134 -19.27,9.75 -30.657,9.75 -24.53,0 -45.332,-16.764 -51.53,-39.406 z M 342.438,179 c -19.033,0 -34.282,15.25 -34.282,34.313 0,19.063 15.25,34.312 34.28,34.312 19.034,0 34.252,-15.246 34.252,-34.313 0,-19.063 -15.218,-34.312 -34.25,-34.312 z m 66.03,57.125 c -17.362,0 -31.25,13.888 -31.25,31.28 0,17.394 13.888,31.283 31.25,31.283 17.364,0 31.25,-13.886 31.25,-31.282 0,-17.393 -13.886,-31.28 -31.25,-31.28 z M 64.907,307.25 c -7.423,9.67 -14.177,19.17 -20.344,28.47 3.222,9.158 10.11,19.44 20.657,29.967 13.9,13.877 33.814,28.027 57.81,41.063 41.59,22.59 95.45,41.855 152.032,52.53 3.07,-8.944 5.834,-18.35 8.22,-28.25 C 247.917,420.282 204.074,402.365 163.094,380.094 123.704,358.687 87.427,333.934 64.906,307.25 Z M 32.72,354.563 c -4.446,7.515 -8.483,14.866 -12.126,22.093 1.467,9.07 7.963,20.19 19.593,31.72 12.248,12.14 29.84,24.596 51.094,36.062 41.084,22.16 95.78,40.72 152.22,49.187 h 17.375 c 2.59,-5.32 5.097,-10.844 7.47,-16.563 -57.277,-11.12 -111.46,-30.63 -154.25,-53.875 -25.16,-13.666 -46.376,-28.622 -62.064,-44.28 -7.912,-7.9 -14.49,-16.006 -19.31,-24.344 z m -14.47,57.53 v 34.094 c 1.047,2.302 3.192,5.48 6.875,8.97 5.26,4.982 13.178,10.427 22.844,15.53 18.88,9.97 44.434,18.675 70.624,22.938 H 161 c -28.807,-9.095 -55.546,-20.318 -78.594,-32.75 -22.413,-12.09 -41.336,-25.303 -55.375,-39.22 -3.173,-3.145 -6.107,-6.326 -8.78,-9.56 z m 0,61.782 v 19.75 h 34.344 c -4.66,-2.048 -9.133,-4.183 -13.344,-6.406 -7.93,-4.19 -15.012,-8.627 -21,-13.345 z"
       fill="#fff"
       fill-opacity="1"
       id="path969"
       style="fill:#555555;fill-opacity:1" />
  </g>
</svg>
