<?xml version="1.0" encoding="UTF-8" standalone="no"?>
<!-- Created with Inkscape (http://www.inkscape.org/) -->

<svg
   width="100mm"
   height="100mm"
   version="1.1"
   viewBox="0 0 100 100"
   id="svg256"
   sodipodi:docname="grass_texture.svg"
   inkscape:version="1.1.2 (0a00cf5339, 2022-02-04)"
   xmlns:inkscape="http://www.inkscape.org/namespaces/inkscape"
   xmlns:sodipodi="http://sodipodi.sourceforge.net/DTD/sodipodi-0.dtd"
   xmlns="http://www.w3.org/2000/svg"
   xmlns:svg="http://www.w3.org/2000/svg">
  <defs
     id="defs260" />
  <sodipodi:namedview
     id="namedview258"
     pagecolor="#ffffff"
     bordercolor="#666666"
     borderopacity="1.0"
     inkscape:pageshadow="2"
     inkscape:pageopacity="0.0"
     inkscape:pagecheckerboard="0"
     inkscape:document-units="mm"
     showgrid="false"
     inkscape:zoom="1.6332841"
     inkscape:cx="144.80028"
     inkscape:cy="244.59921"
     inkscape:window-width="2490"
     inkscape:window-height="1376"
     inkscape:window-x="0"
     inkscape:window-y="0"
     inkscape:window-maximized="1"
     inkscape:current-layer="g254" />
  <g
     id="g254">
    <rect
       width="100"
       height="100"
       fill="#27ae60"
       id="rect2" />
    <g
       fill="#2fb660"
       id="g252">
      <path
         d="m29.992 47.512-3.1971-8.2673 8.5872 1.1633z"
         id="path4"
         style="fill:#4fb660;fill-opacity:1" />
      <path
         d="m54.718 21.485-3.1971-8.2673 8.5872 1.1633z"
         id="path6" />
      <path
         d="m48.789 46.356-3.1971-8.2673 8.5872 1.1633z"
         id="path8"
         style="fill:#4fb660;fill-opacity:1" />
      <path
         d="m40.946 55.321-3.1971-8.2673 8.5872 1.1633z"
         id="path10" />
      <path
         d="m3.8199 7.6467 4.6654-4.5637 1.5851 6.1879z"
         id="path12"
         style="fill:#2fb668;fill-opacity:1" />
      <path
         d="m11.07 2.5048 7.3125-5.0096 0.83905 8.6249z"
         id="path14"
         style="fill:#4fb660;fill-opacity:1" />
      <path
         d="m18.418 19.101 7.3125-5.0096 0.83905 8.6249z"
         id="path16"
         style="fill:#4fb660;fill-opacity:1" />
      <path
         d="m9.4965 28.885-0.4259-8.8537 7.7817 3.8128z"
         id="path18" />
      <path
         d="m19.237 41.01-0.4259-8.8537 7.7817 3.8128z"
         id="path20"
         style="fill:#2fb668;fill-opacity:1" />
      <path
         d="m47.867 35.081-0.4259-8.8537 7.7817 3.8128z"
         id="path22"
         style="fill:#2fb668;fill-opacity:1" />
      <path
         d="m46.535 6.9473-0.4259-8.8537 7.7817 3.8128z"
         id="path24" />
      <path
         d="m30.37 27.273-0.4259-8.8537 7.7817 3.8128z"
         id="path26" />
      <path
         d="m4.054 43.179-0.4259-8.8537 7.7817 3.8128z"
         id="path28" />
      <path
         d="m29.218-1.8077 7.3125-5.0096 0.83905 8.6249z"
         id="path30" />
      <path
         d="m39.276 18.488 7.3125-5.0096 0.83905 8.6249z"
         id="path32"
         style="fill:#4fb660;fill-opacity:1" />
      <path
         d="m31.403 33.109 7.3125-5.0096 0.83905 8.6249z"
         id="path34" />
      <path
         d="m7.9891 48.139 7.3125-5.0096 0.83905 8.6249z"
         id="path36"
         style="fill:#4fb660;fill-opacity:1" />
      <path
         d="m21.885 13.609 1.4682-5.6273 3.76 4.0154z"
         id="path38"
         style="fill:#2fb668;fill-opacity:1" />
      <path
         d="m30.697 14.926 1.4682-5.6273 3.76 4.0154z"
         id="path40" />
      <path
         d="m38.713 11.327 1.4682-5.6273 3.76 4.0154z"
         id="path42" />
      <path
         d="m28.988 7.8299 1.4682-5.6273 3.76 4.0154z"
         id="path44"
         style="fill:#4fb660;fill-opacity:1" />
      <path
         d="m50.118 12.272 1.4682-5.6273 3.76 4.0154z"
         id="path46"
         style="fill:#2fb668;fill-opacity:1" />
      <path
         d="m20.955 30.865 1.4682-5.6273 3.76 4.0154z"
         id="path48" />
      <path
         d="m23.89 4.9282-2.9042-5.0387 5.4966 0.22083z"
         id="path50" />
      <path
         d="m14.76 16.256-2.9042-5.0387 5.4966 0.22083z"
         id="path52" />
      <path
         d="m14.182 35.343-2.9042-5.0387 5.4966 0.22083z"
         id="path54"
         style="fill:#4fb660;fill-opacity:1" />
      <path
         d="m43.101 28.547-2.9042-5.0387 5.4966 0.22083z"
         id="path56"
         style="fill:#4fb660;fill-opacity:1" />
      <path
         d="m39.631 46.187-2.9042-5.0387 5.4966 0.22083z"
         id="path58" />
      <path
         d="m3.5101 61.138 1.4682-5.6273 3.76 4.0154z"
         id="path60"
         style="fill:#2fb668;fill-opacity:1" />
      <path
         d="m61.189 86.49 1.83-8.6729 6.5626 5.6591z"
         id="path62"
         style="fill:#2fb668;fill-opacity:1" />
      <path
         d="m77.574 95.774 1.83-8.6729 6.5626 5.6591z"
         id="path64" />
      <path
         d="m63.028 96.157-6.4312-6.0999 8.2574-2.6285z"
         id="path66"
         style="fill:#4fb660;fill-opacity:1" />
      <path
         d="m60.999 38.802 6.3996-1.2801-2.0468 6.0509z"
         id="path68"
         style="fill:#4fb660;fill-opacity:1" />
      <path
         d="m87.367-1.5089 6.3996-1.2801-2.0468 6.0509z"
         id="path70" />
      <path
         d="m54.179 44.945 7.7794-3.5812-0.60422 8.3507z"
         id="path72" />
      <path
         d="m68.214 42.092 8.8614-0.20987-4.0014 7.6864z"
         id="path74"
         style="fill:#2fb668;fill-opacity:1" />
      <path
         d="m66.986 56.365 8.8614-0.20987-4.0014 7.6864z"
         id="path76"
         style="fill:#2fb668;fill-opacity:1" />
      <path
         d="m54.172 59.699 4.4725-7.6528 4.4423 7.4404z"
         id="path78"
         style="fill:#4fb660;fill-opacity:1" />
      <path
         d="m55.722 75.174 4.4725-7.6528 4.4423 7.4404z"
         id="path80" />
      <path
         d="m82.951 85.822 4.4725-7.6528 4.4423 7.4404z"
         id="path82"
         style="fill:#2fb668;fill-opacity:1" />
      <path
         d="m95.804 91.555 4.4725-7.6528 4.4423 7.4403z"
         id="path84" />
      <path
         d="m72.546 69.734 4.4725-7.6528 4.4423 7.4404z"
         id="path86" />
      <path
         d="m41.814 68.71 4.4725-7.6528 4.4423 7.4403z"
         id="path88"
         style="fill:#2fb668;fill-opacity:1" />
      <path
         d="m82.848 52.049 8.8614-0.20987-4.0014 7.6864z"
         id="path90" />
      <path
         d="m84.802 67.228 8.8614-0.20987-4.0014 7.6864z"
         id="path92"
         style="fill:#4fb660;fill-opacity:1" />
      <path
         d="m70.228 75.188 8.8614-0.20987-4.0014 7.6864z"
         id="path94"
         style="fill:#4fb660;fill-opacity:1" />
      <path
         d="m42.406 75.013 8.8614-0.20987-4.0014 7.6864z"
         id="path96"
         style="fill:#4fb660;fill-opacity:1" />
      <path
         d="m72.887 53.653 4.3001-3.9156 0.96108 5.4164z"
         id="path98"
         style="fill:#4fb660;fill-opacity:1" />
      <path
         d="m78.52 62.381 4.3001-3.9156 0.96108 5.4164z"
         id="path100" />
      <path
         d="m93.966 67.418 4.3001-3.9156 0.96108 5.4164z"
         id="path102"
         style="fill:#2fb668;fill-opacity:1" />
      <path
         d="m97.276 74.039 4.3001-3.9156 0.96109 5.4164z"
         id="path104" />
      <path
         d="m91.293 60.515 4.3001-3.9156 0.96108 5.4164z"
         id="path106" />
      <path
         d="m62.695 67.609 4.3001-3.9156 0.96108 5.4164z"
         id="path108" />
      <path
         d="m79.406 50.379 0.3144-5.8072 4.4864 3.1833z"
         id="path110" />
      <path
         d="m65.472 51.985 0.3144-5.8072 4.4864 3.1833z"
         id="path112" />
      <path
         d="m54.576 67.667 0.3144-5.8072 4.4864 3.1833z"
         id="path114" />
      <path
         d="m82.521 77.745 0.3144-5.8072 4.4864 3.1833z"
         id="path116" />
      <path
         d="m69.99 90.638 0.3144-5.8072 4.4864 3.1833z"
         id="path118" />
      <path
         d="m47.929 56.101 4.3001-3.9156 0.96108 5.4164z"
         id="path120" />
      <path
         d="m49.98 85.973 4.3001-3.9156 0.96108 5.4164z"
         id="path122" />
      <path
         d="m33.496 78.279 4.3001-3.9156 0.96108 5.4164z"
         id="path124" />
      <path
         d="m88.115 36.922 1.83-8.6729 6.5626 5.6591z"
         id="path126"
         style="fill:#2fb668;fill-opacity:1" />
      <path
         d="m89.552 47.173 1.83-8.6729 6.5626 5.6591z"
         id="path128" />
      <path
         d="m81.098 10.131 4.4725-7.6528 4.4423 7.4404z"
         id="path130" />
      <path
         d="m82.648 25.605 4.4725-7.6528 4.4423 7.4404z"
         id="path132" />
      <path
         d="m95.331 18.487 4.4725-7.6528 4.4423 7.4404z"
         id="path134"
         style="fill:#4fb660;fill-opacity:1" />
      <path
         d="m68.74 19.142 4.4725-7.6528 4.4423 7.4403z"
         id="path136"
         style="fill:#2fb668;fill-opacity:1" />
      <path
         d="m69.332 25.445 8.8614-0.20987-4.0014 7.6864z"
         id="path138"
         style="fill:#4fb660;fill-opacity:1" />
      <path
         d="m64.854-3.6334 8.8614-0.20987-4.0014 7.6864z"
         id="path140"
         style="fill:#2fb668;fill-opacity:1" />
      <path
         d="m89.622 18.041 4.3001-3.9156 0.96108 5.4164z"
         id="path142" />
      <path
         d="m81.503 18.098 0.3144-5.8072 4.4864 3.1833z"
         id="path144"
         style="fill:#4fb660;fill-opacity:1" />
      <path
         d="m74.856 6.5328 4.3001-3.9156 0.96108 5.4164z"
         id="path146" />
      <path
         d="m77.537 35.019 4.3001-3.9156 0.96108 5.4164z"
         id="path148" />
      <path
         d="m67.955 36.677 4.3001-3.9156 0.96108 5.4164z"
         id="path150" />
      <path
         d="m82.379 42.825 4.3001-3.9156 0.96108 5.4164z"
         id="path152"
         style="fill:#4fb660;fill-opacity:1" />
      <path
         d="m97.276 27.219 4.3001-3.9156 0.96109 5.4164z"
         id="path154"
         style="fill:#2fb668;fill-opacity:1" />
      <path
         d="m95.03 39.87 4.3001-3.9156 0.96108 5.4164z"
         id="path156" />
      <path
         d="m60.422 28.711 4.3001-3.9156 0.96108 5.4164z"
         id="path158" />
      <path
         d="m52.38 25.62 4.3001-3.9156 0.96108 5.4164z"
         id="path160" />
      <path
         d="m60.908 19.935 4.3001-3.9156 0.96108 5.4164z"
         id="path162"
         style="fill:#4fb660;fill-opacity:1" />
      <path
         d="m19.303 95.796 1.83-8.6729 6.5626 5.6591z"
         id="path164"
         style="fill:#4fb660;fill-opacity:1" />
      <path
         d="m12.293 54.251 7.7794-3.5812-0.60422 8.3507z"
         id="path166" />
      <path
         d="m26.328 51.397 8.8614-0.20987-4.0014 7.6864z"
         id="path168" />
      <path
         d="m25.1 65.67 8.8614-0.20987-4.0014 7.6864z"
         id="path170"
         style="fill:#4fb660;fill-opacity:1" />
      <path
         d="m12.286 69.004 4.4725-7.6528 4.4423 7.4404z"
         id="path172"
         style="fill:#2fb668;fill-opacity:1" />
      <path
         d="m13.836 84.479 4.4725-7.6528 4.4423 7.4404z"
         id="path174"
         style="fill:#2fb668;fill-opacity:1" />
      <path
         d="m54.922 75.161 4.4725-7.6528 4.4423 7.4404z"
         id="path176"
         style="fill:#4fb660;fill-opacity:1" />
      <path
         d="m-0.07232 78.015 4.4725-7.6528 4.4423 7.4403z"
         id="path178" />
      <path
         d="m28.343 84.493 8.8614-0.20987-4.0014 7.6864z"
         id="path180" />
      <path
         d="m2.7774 80.724 8.8614-0.20987-4.0014 7.6864z"
         id="path182"
         style="fill:#4fb660;fill-opacity:1" />
      <path
         d="m35.189 61.243 4.3001-3.9156 0.96108 5.4164z"
         id="path184"
         style="fill:#4fb660;fill-opacity:1" />
      <path
         d="m33.962 69.376 4.3001-3.9156 0.96108 5.4164z"
         id="path186" />
      <path
         d="m20.809 76.914 4.3001-3.9156 0.96108 5.4164z"
         id="path188" />
      <path
         d="m23.503 62.795 0.3144-5.8072 4.4864 3.1833z"
         id="path190" />
      <path
         d="m12.69 76.972 0.3144-5.8072 4.4864 3.1833z"
         id="path192" />
      <path
         d="m40.635 87.051 0.31441-5.8072 4.4864 3.1833z"
         id="path194" />
      <path
         d="m37.858 95.244 0.31441-5.8072 4.4864 3.1833z"
         id="path196"
         style="fill:#2fb668;fill-opacity:1" />
      <path
         d="m58.63 7.9198 0.31441-5.8072 4.4864 3.1833z"
         id="path198"
         style="fill:#4fb660;fill-opacity:1" />
      <path
         d="m55.179 1.3666 0.31441-5.8072 4.4864 3.1833z"
         id="path200" />
      <path
         d="m66.656 14.775 0.31441-5.8072 4.4864 3.1833z"
         id="path202" />
      <path
         d="m93.911 8.923 0.31441-5.8072 4.4864 3.1833z"
         id="path204"
         style="fill:#2fb668;fill-opacity:1" />
      <path
         d="m80.599 3.1401 0.31441-5.8072 4.4864 3.1833z"
         id="path206"
         style="fill:#4fb660;fill-opacity:1" />
      <path
         d="m93.911 81.491 0.31441-5.8072 4.4864 3.1833z"
         id="path208" />
      <path
         d="m90.232 94.199 0.31441-5.8072 4.4864 3.1833z"
         id="path210"
         style="fill:#4fb660;fill-opacity:1" />
      <path
         d="m97.861 100.45 0.31441-5.8072 4.4864 3.1833z"
         id="path212" />
      <path
         d="m45.755 94.366 0.31441-5.8072 4.4864 3.1833z"
         id="path214"
         style="fill:#4fb660;fill-opacity:1" />
      <path
         d="m6.0436 65.406 4.3001-3.9156 0.96108 5.4164z"
         id="path216"
         style="fill:#4fb660;fill-opacity:1" />
      <path
         d="m8.7246 93.892 4.3001-3.9156 0.96108 5.4164z"
         id="path218" />
      <path
         d="m94.649 48.035 8.8614-0.20987-4.0014 7.6864z"
         id="path220"
         style="fill:#4fb660;fill-opacity:1" />
      <path
         d="m-4.1957 91.555 4.4725-7.6528 4.4423 7.4404z"
         id="path222" />
      <path
         d="m-2.7236 74.039 4.3001-3.9156 0.96109 5.4164z"
         id="path224" />
      <path
         d="m-4.6686 18.487 4.4725-7.6528 4.4423 7.4404z"
         id="path226"
         style="fill:#4fb660;fill-opacity:1" />
      <path
         d="m-2.7236 27.219 4.3001-3.9156 0.96109 5.4164z"
         id="path228"
         style="fill:#2fb668;fill-opacity:1" />
      <path
         d="m-4.97 39.87 4.3001-3.9156 0.96108 5.4164z"
         id="path230" />
      <path
         d="m-2.1387 100.45 0.31441-5.8072 4.4864 3.1834z"
         id="path232" />
      <path
         d="m-5.3513 48.035 8.8614-0.20987-4.0014 7.6864z"
         id="path234"
         style="fill:#4fb660;fill-opacity:1" />
      <path
         d="m11.07 102.51 7.3125-5.0096 0.83905 8.6249z"
         id="path236"
         style="fill:#4fb660;fill-opacity:1" />
      <path
         d="m46.535 106.95-0.42589-8.8537 7.7817 3.8128z"
         id="path238" />
      <path
         d="m29.218 98.193 7.3125-5.0096 0.83905 8.6249z"
         id="path240" />
      <path
         d="m23.89 104.93-2.9042-5.0386 5.4966 0.22083z"
         id="path242" />
      <path
         d="m87.367 98.491 6.3996-1.2801-2.0468 6.0509z"
         id="path244"
         style="fill:#2fb660;fill-opacity:1" />
      <path
         d="m64.854 96.367 8.8614-0.20987-4.0014 7.6864z"
         id="path246"
         style="fill:#2fb668;fill-opacity:1" />
      <path
         d="m55.179 101.37 0.31441-5.8072 4.4864 3.1834z"
         id="path248" />
      <path
         d="m80.599 103.14 0.31441-5.8072 4.4864 3.1834z"
         id="path250"
         style="fill:#4fb660;fill-opacity:1" />
    </g>
  </g>
</svg>
