<?xml version="1.0" encoding="UTF-8" standalone="no"?>
<svg
   style="height: 512px; width: 512px;"
   viewBox="0 0 512 512"
   version="1.1"
   id="svg8"
   sodipodi:docname="health.svg"
   inkscape:version="1.2.1 (9c6d41e410, 2022-07-14)"
   xmlns:inkscape="http://www.inkscape.org/namespaces/inkscape"
   xmlns:sodipodi="http://sodipodi.sourceforge.net/DTD/sodipodi-0.dtd"
   xmlns:xlink="http://www.w3.org/1999/xlink"
   xmlns="http://www.w3.org/2000/svg"
   xmlns:svg="http://www.w3.org/2000/svg">
  <defs
     id="defs12">
    <linearGradient
       inkscape:collect="always"
       id="linearGradient53300">
      <stop
         style="stop-color:#e74c3c;stop-opacity:1;"
         offset="0"
         id="stop53296" />
      <stop
         style="stop-color:#c0392b;stop-opacity:1;"
         offset="1"
         id="stop53298" />
    </linearGradient>
    <radialGradient
       inkscape:collect="always"
       xlink:href="#linearGradient53300"
       id="radialGradient53302"
       cx="255.98874"
       cy="255.74591"
       fx="255.98874"
       fy="255.74591"
       r="239.10417"
       gradientTransform="matrix(1.0037937,0.0010627,-0.00106152,1.0026833,-0.69966125,-0.9582992)"
       gradientUnits="userSpaceOnUse" />
  </defs>
  <sodipodi:namedview
     id="namedview10"
     pagecolor="#ffffff"
     bordercolor="#000000"
     borderopacity="0.25"
     inkscape:showpageshadow="2"
     inkscape:pageopacity="0.0"
     inkscape:pagecheckerboard="0"
     inkscape:deskcolor="#d1d1d1"
     showgrid="false"
     inkscape:zoom="0.50146485"
     inkscape:cx="127.62609"
     inkscape:cy="393.84615"
     inkscape:window-width="1278"
     inkscape:window-height="1360"
     inkscape:window-x="0"
     inkscape:window-y="0"
     inkscape:window-maximized="0"
     inkscape:current-layer="svg8" />
  <g
     class=""
     style=""
     transform="translate(0,0)"
     id="g6">
    <path
       d="M196 16a30 30 0 0 0-30 30v120H46a30 30 0 0 0-30 30v120a30 30 0 0 0 30 30h120v120a30 30 0 0 0 30 30h120a30 30 0 0 0 30-30V346h120a30 30 0 0 0 30-30V196a30 30 0 0 0-30-30H346V46a30 30 0 0 0-30-30H196z"
       fill="#fff"
       fill-opacity="1"
       id="path4" />
  </g>
  <path
     style="fill:url(#radialGradient53302);stroke-width:3;fill-opacity:1;stroke:#000000;stroke-opacity:1;stroke-dasharray:none"
     d="m 189.44498,494.54785 c -3.16731,-0.56286 -6.66452,-2.17711 -10.23239,-4.72309 -4.98656,-3.55834 -8.60881,-8.33177 -11.09319,-14.61872 l -1.31925,-3.33847 -0.28054,-62.6617 c -0.15429,-34.46394 -0.44255,-62.82372 -0.64057,-63.02174 -0.19803,-0.19802 -28.45985,-0.52179 -62.80406,-0.71949 -43.976075,-0.25314 -63.080883,-0.52708 -64.597395,-0.92622 -5.735822,-1.50969 -12.430091,-6.32453 -16.264877,-11.6985 -3.015273,-4.22553 -4.139584,-6.89203 -4.779311,-11.33498 -0.725977,-5.04197 -0.734432,-125.86363 -0.0092,-131.06288 1.350067,-9.67837 9.024153,-18.37035 19.763769,-22.38524 l 3.941509,-1.47348 62.174165,-0.18314 c 34.1958,-0.10073 62.3415,-0.35048 62.54602,-0.55499 0.20452,-0.20452 0.52221,-28.46139 0.70597,-62.79305 0.24153,-45.125459 0.49584,-63.035628 0.91781,-64.638712 1.61144,-6.121936 6.70989,-12.873362 12.7951,-16.943399 6.191,-4.140793 5.71435,-4.073889 32.85704,-4.611851 27.19134,-0.538926 103.40398,-0.110736 108.68159,0.610613 9.39101,1.28357 18.15227,9.08646 22.14114,19.719183 l 1.47866,3.941509 0.15504,62.151277 c 0.0853,34.1832 0.33169,62.3279 0.54758,62.54377 0.21589,0.21588 28.37091,0.47345 62.5667,0.57237 l 62.17417,0.17986 4.65767,1.76918 c 10.20768,3.8773 17.71046,12.5827 19.03127,22.0818 0.71315,5.12884 0.71054,126.06158 -0.003,131.09148 -0.62729,4.42302 -1.75161,7.09174 -4.76931,11.32068 -3.83479,5.37397 -10.52906,10.18881 -16.26488,11.6985 -1.51652,0.39914 -20.62132,0.67308 -64.5974,0.92622 -34.34421,0.1977 -62.60857,0.52401 -62.80969,0.72513 -0.20112,0.20112 -0.50897,28.44873 -0.68411,62.77247 -0.23086,45.2446 -0.47931,63.01662 -0.90341,64.6243 -1.61619,6.1266 -6.71211,12.874 -12.79637,16.9434 -6.9402,4.64189 -0.21646,4.25025 -74.48508,4.3386 -36.05687,0.0429 -66.56748,-0.10141 -67.80137,-0.32069 z"
     id="path9162" />
</svg>
