<?xml version="1.0" encoding="UTF-8"?>
<svg style="height:512px;width:512px" version="1.1" viewBox="0 0 512 512" xmlns="http://www.w3.org/2000/svg" xmlns:xlink="http://www.w3.org/1999/xlink">
 <path d="m15.927 6.2131h512v512h-512z" fill="none"/>
 <g class="" transform="translate(2.9267 6.2131)" fill="#555">
  <path d="m255.41 17.75c-66.093 21.67-130.87 67.374-176.38 132.59 21.238 57.44 32.72 94.314 32.72 131.38 0 36.493-11.52 73.723-32.125 129.66 49.72 36.73 100.08 58.95 150.31 64.938-5.052-60.378-9.83-120.75 1.593-181.12-30.644-3.28-61.384-13.286-92.03-30.72v-71.312c80.67 42.255 158.91 41.547 242.06 0v71.313c-30.06 14.376-60.192 24.722-90.25 29.28 8.684 60.46 7.723 120.92 2.03 181.38 46.386-7.335 92.89-28.824 139.03-64.312-33.966-112.95-34.03-145.93 0.594-260.47-41.808-65.497-115.05-110.45-177.56-132.59z" fill="#555" stroke="#000"/>
 </g>
</svg>
