<?xml version="1.0" encoding="UTF-8" standalone="no"?>
<svg
   style="height: 512px; width: 512px;"
   viewBox="0 0 512 512"
   version="1.1"
   id="svg397"
   sodipodi:docname="cog.svg"
   inkscape:version="1.1.2 (0a00cf5339, 2022-02-04)"
   xmlns:inkscape="http://www.inkscape.org/namespaces/inkscape"
   xmlns:sodipodi="http://sodipodi.sourceforge.net/DTD/sodipodi-0.dtd"
   xmlns:xlink="http://www.w3.org/1999/xlink"
   xmlns="http://www.w3.org/2000/svg"
   xmlns:svg="http://www.w3.org/2000/svg">
  <defs
     id="defs401">
    <linearGradient
       inkscape:collect="always"
       id="linearGradient2131">
      <stop
         style="stop-color:#bdc3c7;stop-opacity:1"
         offset="0"
         id="stop2127" />
      <stop
         style="stop-color:#7f8c8d;stop-opacity:1"
         offset="1"
         id="stop2129" />
    </linearGradient>
    <linearGradient
       inkscape:collect="always"
       id="linearGradient1528">
      <stop
         style="stop-color:#999999;stop-opacity:1;"
         offset="0"
         id="stop1524" />
      <stop
         style="stop-color:#999999;stop-opacity:0;"
         offset="1"
         id="stop1526" />
    </linearGradient>
    <radialGradient
       inkscape:collect="always"
       xlink:href="#linearGradient1528"
       id="radialGradient1530"
       cx="256.596"
       cy="258.28"
       fx="256.596"
       fy="258.28"
       r="239.001"
       gradientTransform="matrix(1,0,0,1.0020879,0,-0.5392518)"
       gradientUnits="userSpaceOnUse" />
    <radialGradient
       inkscape:collect="always"
       xlink:href="#linearGradient2131"
       id="radialGradient1839"
       cx="304.96695"
       cy="208.70422"
       fx="304.96695"
       fy="208.70422"
       r="239.54532"
       gradientTransform="matrix(0.90752894,-0.00481297,0.00420636,0.79314782,23.918585,50.094579)"
       gradientUnits="userSpaceOnUse" />
  </defs>
  <sodipodi:namedview
     id="namedview399"
     pagecolor="#ffffff"
     bordercolor="#666666"
     borderopacity="1.0"
     inkscape:pageshadow="2"
     inkscape:pageopacity="0.0"
     inkscape:pagecheckerboard="0"
     showgrid="false"
     inkscape:zoom="0.42626953"
     inkscape:cx="-103.22108"
     inkscape:cy="463.32188"
     inkscape:window-width="2490"
     inkscape:window-height="1376"
     inkscape:window-x="0"
     inkscape:window-y="0"
     inkscape:window-maximized="1"
     inkscape:current-layer="g395" />
  <g
     class=""
     style="fill-opacity:1;fill:url(#radialGradient1530);stroke:#000000;stroke-opacity:1"
     transform="translate(-13,0)"
     id="g395">
    <path
       d="M234.875 18.78c-26.087 2.367-51.557 8.56-74.875 18.782 15.37 32.763 14.222 66.706-6.72 82.407-20.835 15.617-54.055 7.965-81.124-15.69-16.246 19.452-29.336 41.36-38.875 65.626 33.83 12.333 56.635 37.665 52.94 63.5-3.698 25.835-32.697 43.74-68.626 46.094 2.338 25.796 8.91 50.778 18.937 73.875 17.81-8.182 35.793-11.09 51.095-8.938 13.032 1.87 23.927 7.015 31.156 16.657 15.817 21.097 7.603 54.713-16.78 81.97 19.516 16.35 42.216 29.444 66.594 39.03 12.33-33.828 37.655-56.634 63.5-52.938 25.844 3.697 43.74 32.696 46.094 68.625 26.087-2.365 51.557-8.555 74.875-18.78-15.766-32.997-14.26-67.588 6.843-83.406 9.64-7.23 22.568-9.022 35.594-7.125 15.112 2.16 31.19 10.25 45.563 22.78 16.088-19.345 29.4-41.51 38.875-65.594-33.83-12.332-56.635-37.653-52.938-63.5 3.697-25.846 32.665-43.772 68.594-46.125-2.36-25.944-8.774-50.663-18.906-73.874-32.612 15.117-66.66 13.145-82.282-7.687-15.696-20.944-7.252-53.86 16.688-81-19.52-16.352-42.248-29.447-66.625-39.032-12.332 33.828-37.657 56.66-63.5 52.968-25.846-3.693-43.744-32.696-46.095-68.625zm21.656 95.126c79.626 0 144.376 64.752 144.376 144.375 0 79.626-64.75 144.376-144.375 144.376-79.624 0-144.374-64.75-144.374-144.375 0-79.624 64.75-144.374 144.375-144.374zm0 18.688c-69.524 0-125.686 56.162-125.686 125.687 0 69.526 56.162 125.69 125.687 125.69 69.526 0 125.69-56.164 125.69-125.69 0-69.522-56.164-125.686-125.69-125.686zm.033 15.125c61.094 0 110.625 49.53 110.625 110.624 0 61.095-49.53 110.625-110.625 110.625s-110.625-49.53-110.625-110.626c0-61.095 49.53-110.625 110.625-110.625z"
       fill="#fff"
       fill-opacity="1"
       id="path393"
       style="fill-opacity:1;fill:url(#radialGradient1839);stroke:#000000;stroke-opacity:1" />
  </g>
</svg>
