<?xml version="1.0" encoding="UTF-8" standalone="no"?>
<!-- Created with Inkscape (http://www.inkscape.org/) -->

<svg
   width="216"
   height="233"
   version="1.1"
   viewBox="0 0 216 233"
   id="svg18"
   sodipodi:docname="logo.svg"
   inkscape:version="1.1.2 (0a00cf5339, 2022-02-04)"
   xmlns:inkscape="http://www.inkscape.org/namespaces/inkscape"
   xmlns:sodipodi="http://sodipodi.sourceforge.net/DTD/sodipodi-0.dtd"
   xmlns="http://www.w3.org/2000/svg"
   xmlns:svg="http://www.w3.org/2000/svg">
  <defs
     id="defs22" />
  <sodipodi:namedview
     id="namedview20"
     pagecolor="#ffffff"
     bordercolor="#666666"
     borderopacity="1.0"
     inkscape:pageshadow="2"
     inkscape:pageopacity="0.0"
     inkscape:pagecheckerboard="0"
     showgrid="false"
     inkscape:zoom="1.3246872"
     inkscape:cx="49.068188"
     inkscape:cy="57.749482"
     inkscape:window-width="1325"
     inkscape:window-height="1376"
     inkscape:window-x="26"
     inkscape:window-y="23"
     inkscape:window-maximized="0"
     inkscape:current-layer="svg18" />
  <g
     fill="#555555"
     id="g16"
     transform="matrix(1.2992921,0,0,1.2238551,-33.029218,-20.641182)">
    <g
       transform="matrix(0.27377,0,0,0.27377,35.491,76.611)"
       id="g6">
      <path
         transform="matrix(3.6528,0,0,3.6528,-129.64,-279.84)"
         d="m 52,55.502 1.8848,41.23 9.7148,41.928 11.82,23.033 19.828,17.379 1.9609,-104.85 -8.1191,-0.41211 -10.271,-9.0996 3.9355,-6.0703 -30.754,-3.1426 z m 15.396,16.92 3.9961,0.0293 11.49,11.004 0.30469,27.6 -10.793,-0.30274 -5.2832,-13.125 0.28516,-25.205 z m 4.3516,45.664 11.576,0.13281 0.5293,33.85 -7.625,-13.469 -4.4805,-20.514 z"
         id="path2" />
      <path
         transform="matrix(3.6528,0,0,3.6528,-129.64,-279.84)"
         d="m 166.54,55.439 -30.756,3.1426 3.9375,6.0684 -10.271,9.0996 -8.1211,0.41211 1.9629,104.85 19.828,-17.379 11.82,-23.031 9.7148,-41.93 1.8848,-41.229 z m -15.398,16.918 0.28711,25.205 -5.2852,13.125 -10.791,0.30273 0.30469,-27.598 11.49,-11.006 3.9941,-0.0293 z m -4.3516,45.666 -4.4785,20.512 -7.625,13.471 0.52734,-33.85 11.576,-0.13281 z"
         id="path4" />
    </g>
    <path
       d="m 104.28,35.396 4.6105,1.6705 5.2747,-1.6926 0.36824,21.325 -5.3056,1.5385 -5.1932,-1.9212 z"
       id="path8" />
    <path
       d="m 86.908,68.483 -4.5135,-4.0307 4.1486,-6.0082 14.344,-0.18872 8.3492,3.717 8.598,-3.3657 14.031,0.23996 3.4276,5.1759 -3.9639,4.7874 -2.5098,-4.3289 -10.865,0.18946 -9.1852,4.3163 -10.011,-4.5297 -10.577,-0.09326 z"
       id="path10" />
    <path
       d="m 117.86,68.786 2.979,115.46 -12.451,21.077 -11.354,-21.735 2.8434,-115.31 7.104,3.4191 0.12938,115.77 2.16,1.6488 2.2503,-2.2061 -0.8957,-115.6 z"
       id="path12" />
    <path
       d="m 109.53,18.453 5.1293,3.12 2.1042,5.4017 -1.7408,5.4993 -5.4126,1.607 -5.9278,-2.1738 -2.0734,-5.5185 1.7072,-5.9992 z"
       id="path14" />
  </g>
</svg>
