<?xml version="1.0" encoding="UTF-8" standalone="no"?>
<svg
   style="height: 512px; width: 512px;"
   viewBox="0 0 512 512"
   version="1.1"
   id="svg26004"
   sodipodi:docname="mining.svg"
   inkscape:version="1.2.1 (9c6d41e410, 2022-07-14)"
   xmlns:inkscape="http://www.inkscape.org/namespaces/inkscape"
   xmlns:sodipodi="http://sodipodi.sourceforge.net/DTD/sodipodi-0.dtd"
   xmlns:xlink="http://www.w3.org/1999/xlink"
   xmlns="http://www.w3.org/2000/svg"
   xmlns:svg="http://www.w3.org/2000/svg">
  <defs
     id="defs26008">
    <linearGradient
       inkscape:collect="always"
       id="linearGradient1080">
      <stop
         style="stop-color:#bdc3c7;stop-opacity:1;"
         offset="0"
         id="stop1076" />
      <stop
         style="stop-color:#7f8c8d;stop-opacity:1;"
         offset="1"
         id="stop1078" />
    </linearGradient>
    <linearGradient
       inkscape:collect="always"
       id="linearGradient49267">
      <stop
         style="stop-color:#e67e22;stop-opacity:1;"
         offset="0"
         id="stop49263" />
      <stop
         style="stop-color:#f1c40f;stop-opacity:1;"
         offset="1"
         id="stop49265" />
    </linearGradient>
    <radialGradient
       inkscape:collect="always"
       xlink:href="#linearGradient49267"
       id="radialGradient49269"
       cx="256.72413"
       cy="254.87725"
       fx="256.72413"
       fy="254.87725"
       r="234.42413"
       gradientTransform="matrix(1,0,0,1.0113176,0,-2.8846068)"
       gradientUnits="userSpaceOnUse" />
    <radialGradient
       inkscape:collect="always"
       xlink:href="#linearGradient1080"
       id="radialGradient49269-4"
       cx="333.88263"
       cy="199.05754"
       fx="333.88263"
       fy="199.05754"
       r="234.42413"
       gradientTransform="matrix(1,0,0,1.0113176,4e-6,-2.8846)"
       gradientUnits="userSpaceOnUse" />
  </defs>
  <sodipodi:namedview
     id="namedview26006"
     pagecolor="#ffffff"
     bordercolor="#000000"
     borderopacity="0.25"
     inkscape:showpageshadow="2"
     inkscape:pageopacity="0.0"
     inkscape:pagecheckerboard="0"
     inkscape:deskcolor="#d1d1d1"
     showgrid="false"
     inkscape:zoom="1.0029297"
     inkscape:cx="136.5998"
     inkscape:cy="387.36514"
     inkscape:window-width="1278"
     inkscape:window-height="1360"
     inkscape:window-x="1266"
     inkscape:window-y="0"
     inkscape:window-maximized="0"
     inkscape:current-layer="g26002" />
  <g
     class=""
     style="fill-opacity:1;fill:url(#radialGradient49269)"
     transform="translate(0,0)"
     id="g26002">
    <path
       d="M 242.5,27.3 C 233.2,27.4 224,28.2 215,30 332.1,100.5 419.6,194.7 488.6,303.7 491.15792,249.61826 471.34962,194.03432 438.85766,147.08817 435.78264,142.64522 432.59402,138.27963 429.3,134 c -15,5.5 -33.5,0.6 -46.4,-12.2 C 370.1,108.9 365.2,90.4 370.7,75.4 331.4,45.5 286.4,27.1 242.5,27.3 Z m 149.4,48.8 c -7.2,7.04 -6.6,21.6 4.3,32.4 10.8,10.9 25.3,11.4 32.5,4.3 7.1,-7.2 6.9,-22 -4.3,-32.5 -8.7,-8.13 -23.1,-13.47 -32.5,-4.2 z M 335.6,147.3 22.3,460.7 c 4.2,11.5 10.7,20.4 24.5,24.9 L 360.3,172 c -7.5,-8.7 -15.8,-16.9 -24.7,-24.7 z"
       fill="#fff"
       fill-opacity="1"
       id="path26000"
       style="fill:url(#radialGradient49269);fill-opacity:1;stroke:#000000;stroke-opacity:1;stroke-width:1;stroke-dasharray:none"
       sodipodi:nodetypes="cccscccccccccccccc" />
    <path
       d="M 242.5,27.3 C 233.2,27.4 224,28.2 215,30 332.1,100.5 419.6,194.7 488.6,303.7 491.15792,249.61826 471.34962,194.03433 438.85766,147.08817 435.78264,142.64522 432.59402,138.27963 429.3,134 c -15,5.5 -33.5,0.6 -46.4,-12.2 C 370.1,108.9 365.2,90.4 370.7,75.4 331.4,45.5 286.4,27.1 242.5,27.3 Z"
       fill="#fff"
       fill-opacity="1"
       id="path26000-9"
       style="fill:url(#radialGradient49269-4);fill-opacity:1;stroke:#000000;stroke-opacity:1;stroke-width:1;stroke-dasharray:none"
       sodipodi:nodetypes="cccscccc"
       inkscape:transform-center-x="-207.3924"
       inkscape:transform-center-y="-103.6962" />
  </g>
</svg>
