<?xml version="1.0" encoding="UTF-8" standalone="no"?>
<svg
   style="height: 512px; width: 512px;"
   viewBox="0 0 512 512"
   version="1.1"
   id="svg8"
   sodipodi:docname="music.svg"
   inkscape:version="1.1.2 (0a00cf5339, 2022-02-04)"
   xmlns:inkscape="http://www.inkscape.org/namespaces/inkscape"
   xmlns:sodipodi="http://sodipodi.sourceforge.net/DTD/sodipodi-0.dtd"
   xmlns:xlink="http://www.w3.org/1999/xlink"
   xmlns="http://www.w3.org/2000/svg"
   xmlns:svg="http://www.w3.org/2000/svg">
  <defs
     id="defs12">
    <linearGradient
       inkscape:collect="always"
       id="linearGradient993">
      <stop
         style="stop-color:#555555;stop-opacity:1"
         offset="0"
         id="stop989" />
      <stop
         style="stop-color:#555555;stop-opacity:1"
         offset="1"
         id="stop991" />
    </linearGradient>
    <radialGradient
       inkscape:collect="always"
       xlink:href="#linearGradient993"
       id="radialGradient995"
       cx="248.8595"
       cy="255.87004"
       fx="248.8595"
       fy="255.87004"
       r="205.2655"
       gradientTransform="matrix(1,0,0,1.1216987,0,-31.13905)"
       gradientUnits="userSpaceOnUse" />
  </defs>
  <sodipodi:namedview
     id="namedview10"
     pagecolor="#ffffff"
     bordercolor="#666666"
     borderopacity="1.0"
     inkscape:pageshadow="2"
     inkscape:pageopacity="0.0"
     inkscape:pagecheckerboard="0"
     showgrid="false"
     inkscape:zoom="0.21313477"
     inkscape:cx="-541.91064"
     inkscape:cy="-889.1088"
     inkscape:window-width="1551"
     inkscape:window-height="1082"
     inkscape:window-x="26"
     inkscape:window-y="23"
     inkscape:window-maximized="0"
     inkscape:current-layer="svg8" />
  <g
     class=""
     style="fill-opacity:1;fill:url(#radialGradient995)"
     transform="translate(-13,0)"
     id="g6">
    <path
       d="M451.125 25.625l-12.156 3.813-262.064 82.624-6.53 2.063V397.06c-1.257-.497-2.526-.96-3.845-1.375-6.973-2.185-14.84-3.302-23.374-3.343-8.533-.042-17.724 1.01-27.312 3.125-19.176 4.228-36.465 12.1-49.5 21.936-13.035 9.836-22.75 21.828-22.75 36.125 0 7.15 3.008 13.937 7.718 18.845 4.71 4.908 10.87 8.22 17.844 10.406 13.95 4.373 31.543 4.45 50.72.22 19.175-4.23 36.464-12.102 49.5-21.938 13.034-9.835 22.718-21.858 22.718-36.156 0-4.324-1.12-8.504-3.03-12.22V225.22l243.374-76.69v142.407c-1.265-.5-2.547-.958-3.875-1.375-6.975-2.185-14.842-3.302-23.375-3.343-8.534-.043-17.725.978-27.313 3.092-19.176 4.23-36.465 12.103-49.5 21.938-13.035 9.835-22.72 21.86-22.72 36.156 0 7.15 2.978 13.936 7.69 18.844 4.71 4.908 10.868 8.19 17.842 10.375 13.95 4.372 31.543 4.48 50.72.25 19.175-4.23 36.464-12.102 49.5-21.938 13.034-9.835 22.718-21.858 22.718-36.156 0-4.302-1.105-8.476-3-12.186V25.624zm-18.688 25.5v29.188L189.063 157v-29.188l243.375-76.687zm0 48.78v29l-243.375 76.72v-29l243.375-76.72z"
       fill="#fff"
       fill-opacity="1"
       id="path4"
       style="fill-opacity:1;fill:url(#radialGradient995)" />
  </g>
</svg>
