<?xml version="1.0" encoding="UTF-8"?>
<svg style="height:512px;width:512px" version="1.1" viewBox="0 0 512 512" xmlns="http://www.w3.org/2000/svg">
 <g class="" transform="translate(-.55783 5.658)" fill="#555">
  <path d="m95.92 25.17c-14.73-0.32-29.25 5.4-39.24 19.19-19.29 26.68-23.67 60.44-18.07 95.14 5.61 34.7 21.08 70.6 42.55 103.4 37.04 56.6 92.047 128.03 148.15 140.23l-1.9646-50.882c-47.8-12.5-85.191-54.249-119.37-106.35-31.302-48.521-51.748-91.76-32.891-127 30.403-36.926 51.913-20.205 70.42-8.1153 31.697 16.925 67.174 50.978 101.87 54.678l-0.37397-57.551c-27.2-4.13-61.1-25.2-93-42.25-17.7-9.49-34.9-17.7-51.8-19.99-2.1-0.28-4.17-0.45-6.28-0.5zm320.08 0c-2.1 0-4.2 0.21-6.3 0.5-16.8 2.29-34 10.5-51.7 19.99-31.9 17.05-65.8 38.12-93 42.25l0.37397 57.451c34.7-3.7 70.598-31.448 101.13-54.588 21.562-19.607 39.999-24.896 64.99 8.7054 22.273 40.025 0.28496 81.139-29.219 127-34.2 52.1-73.128 93.264-120.93 105.76l1.9646 50.882c56.1-12.2 110.49-83.628 147.49-140.23 21.5-32.8 37-68.7 42.6-103.4s1.2-68.46-18.1-95.13c-10-13.8-24.5-19.51-39.3-19.2zm-169 319.03v32.4h18v-32.4c-3 0.2-6 0.4-9 0.4s-6-0.2-9-0.4zm-12.3 50.4-10.5 7 31.8 21.2 31.8-21.2-10.5-7zm-17.7 23.8v30.4l22.8-15.2zm78 0-22.8 15.2 22.8 15.2zm-39 26-31.8 21.2 31.8 21.2 31.8-21.2z" fill="#555"/>
 </g>
</svg>
