<?xml version="1.0" encoding="UTF-8" standalone="no"?>
<svg
   style="height: 512px; width: 512px;"
   viewBox="0 0 512 512"
   version="1.1"
   id="svg8"
   sodipodi:docname="podium.svg"
   inkscape:version="1.1.2 (0a00cf5339, 2022-02-04)"
   xmlns:inkscape="http://www.inkscape.org/namespaces/inkscape"
   xmlns:sodipodi="http://sodipodi.sourceforge.net/DTD/sodipodi-0.dtd"
   xmlns:xlink="http://www.w3.org/1999/xlink"
   xmlns="http://www.w3.org/2000/svg"
   xmlns:svg="http://www.w3.org/2000/svg">
  <defs
     id="defs12">
    <linearGradient
       inkscape:collect="always"
       id="linearGradient1015">
      <stop
         style="stop-color:#555555;stop-opacity:1"
         offset="0"
         id="stop1011" />
      <stop
         style="stop-color:#555555;stop-opacity:1"
         offset="1"
         id="stop1013" />
    </linearGradient>
    <radialGradient
       inkscape:collect="always"
       xlink:href="#linearGradient1015"
       id="radialGradient1147"
       cx="256"
       cy="256"
       fx="256"
       fy="256"
       r="231"
       gradientUnits="userSpaceOnUse" />
  </defs>
  <sodipodi:namedview
     id="namedview10"
     pagecolor="#ffffff"
     bordercolor="#666666"
     borderopacity="1.0"
     inkscape:pageshadow="2"
     inkscape:pageopacity="0.0"
     inkscape:pagecheckerboard="0"
     showgrid="false"
     inkscape:zoom="0.42626953"
     inkscape:cx="-242.80412"
     inkscape:cy="-134.89118"
     inkscape:window-width="1551"
     inkscape:window-height="1082"
     inkscape:window-x="26"
     inkscape:window-y="23"
     inkscape:window-maximized="0"
     inkscape:current-layer="svg8" />
  <g
     class=""
     style="fill:url(#radialGradient1147);fill-opacity:1"
     transform="translate(-13,0)"
     id="g6">
    <path
       d="M256 25c-11.594 0-23 12.8-23 31s11.406 31 23 31 23-12.8 23-31-11.406-31-23-31zm-103.951 2.975l-16.098 8.05c15.092 30.185 51.37 56.81 82.188 74.442L232.334 295H247V192h18v103h14.666l14.195-184.533c30.818-17.632 67.096-44.257 82.188-74.442l-16.098-8.05c-19.91 29.9-44.891 49.148-71.334 57.77C281.311 97.28 269.75 105 256 105c-13.75 0-25.31-7.72-32.617-19.256-26.443-8.62-51.424-27.87-71.334-57.77zM169 313v96H25v78h462v-30H343V313H169z"
       fill="#fff"
       fill-opacity="1"
       id="path4"
       style="fill:url(#radialGradient1147);fill-opacity:1" />
  </g>
</svg>
