<?xml version="1.0" encoding="UTF-8"?>
<svg style="height:512px;width:512px" version="1.1" viewBox="0 0 512 512" xmlns="http://www.w3.org/2000/svg">
 <g class="" transform="translate(-13)" fill="#555">
  <path d="m340.53 16.47-19.25 89.374 70.66-89.374h-51.41zm151.28 18.686-119.75 132.59 119.75-47.906v-84.688zm-306.44 45.094c-0.652 0.01-1.293 0.034-1.938 0.063-9.51 0.422-18.37 2.635-25.687 7.593-16.964 11.492-11.295 37.156-22.78 63.094-39.24 88.616-78.88 152.88-113.91 200.31v103.38c61.582-21.345 153.3-43.464 287.34-47.907 28.125-0.93 49.728 12.582 66.594 1.158 41.638-28.207 26.563-122.47-33.28-210.81-3.74-5.52-7.224-11.14-11.126-16.344-46.8-62.426-104.12-101.08-145.22-100.53zm-5.375 24.5c-6.756 13.893-0.412 43.86 15.938 80.75-5.16-18.626-4.688-32.142 2.687-36.625 16.125-9.802 59.054 27.175 95.875 82.594 36.82 55.417 53.593 108.29 37.47 118.09-6.634 4.032-17.81 0.138-31.22-9.688 27.717 28.092 52.734 44.51 68.094 43.656-1.785 3.17-3.675 6.244-6.5 8.158-26.9 18.225-91.755-30.25-144.66-108.34-52.902-78.094-73.87-156.34-46.97-174.56 2.757-1.866 5.784-3.525 9.282-4.03zm311.81 115.56-84.688 27.437 84.688 12.844v-40.28z" fill="#555"/>
 </g>
</svg>
