<?xml version="1.0" encoding="UTF-8" standalone="no"?>
<svg
   style="height: 512px; width: 512px;"
   viewBox="0 0 512 512"
   version="1.1"
   id="svg8"
   sodipodi:docname="strength.svg"
   inkscape:version="1.2.1 (9c6d41e410, 2022-07-14)"
   xmlns:inkscape="http://www.inkscape.org/namespaces/inkscape"
   xmlns:sodipodi="http://sodipodi.sourceforge.net/DTD/sodipodi-0.dtd"
   xmlns:xlink="http://www.w3.org/1999/xlink"
   xmlns="http://www.w3.org/2000/svg"
   xmlns:svg="http://www.w3.org/2000/svg">
  <defs
     id="defs12">
    <linearGradient
       inkscape:collect="always"
       id="linearGradient1756">
      <stop
         style="stop-color:#e67e22;stop-opacity:1;"
         offset="0"
         id="stop1752" />
      <stop
         style="stop-color:#f1c40f;stop-opacity:1;"
         offset="1"
         id="stop1754" />
    </linearGradient>
    <radialGradient
       inkscape:collect="always"
       xlink:href="#linearGradient1756"
       id="radialGradient1758"
       cx="254.93405"
       cy="259.4805"
       fx="254.93405"
       fy="259.4805"
       r="236.93405"
       gradientTransform="matrix(1,0,0,0.98980921,0,2.644312)"
       gradientUnits="userSpaceOnUse" />
  </defs>
  <sodipodi:namedview
     id="namedview10"
     pagecolor="#ffffff"
     bordercolor="#000000"
     borderopacity="0.25"
     inkscape:showpageshadow="2"
     inkscape:pageopacity="0.0"
     inkscape:pagecheckerboard="0"
     inkscape:deskcolor="#d1d1d1"
     showgrid="false"
     inkscape:zoom="0.3545892"
     inkscape:cx="338.41978"
     inkscape:cy="176.2603"
     inkscape:window-width="1350"
     inkscape:window-height="1230"
     inkscape:window-x="1080"
     inkscape:window-y="115"
     inkscape:window-maximized="0"
     inkscape:current-layer="svg8" />
  <g
     class=""
     style="fill-opacity:1;fill:url(#radialGradient1758);stroke:#000000;stroke-opacity:1"
     transform="translate(0,0)"
     id="g6">
    <path
       d="m 211.832,39.06 c -15.022,15.31 -15.894,22.83 -23.473,43.903 2.69,9.14 24.65891,48.38336 24.65891,48.38336 C 344.37762,84.693443 338.2254,204.12905 383.135,278.753 355.43378,263.64789 316.39139,235.48469 288.733,231.058 266.181,228.091 226.63589,213.50177 198.17581,253.73617 283.32588,306.69299 141.46949,214.54869 112.127,212.186 72.808488,215.87223 43.387809,234.10256 18,254.293 L 19.994158,492.00584 49.963,494 c 45.184,-17.437 80.287,-57.654 97.03,-94.52 l 0.25,-0.564 c 30.21144,11.80846 104.75882,113.084 275.06222,-38.33958 -80.6236,5.26624 27.92224,-0.52874 55.98178,-0.29842 4.084,-0.02 7.213,-0.453 8.7,-0.886 14.167,-51.072 -4.095,-97.893 -34.294,-145.216 -30.263,-47.425 -72.18,-94.107 -101.896,-143.04 -21.1,-17.257 -24.67011,-42.422868 -77.522,-46.175 -20.386,4.25 -41.026,9.336 -61.443,14.1 z"
       fill="#fff"
       fill-opacity="1"
       id="path4"
       style="fill:url(#radialGradient1758);fill-opacity:1;stroke:#000000;stroke-opacity:1"
       sodipodi:nodetypes="cccccccccccccccccccc" />
  </g>
</svg>
