<?xml version="1.0" encoding="UTF-8"?>
<svg style="height:512px;width:512px" version="1.1" viewBox="0 0 512 512" xmlns="http://www.w3.org/2000/svg" xmlns:xlink="http://www.w3.org/1999/xlink">
 <defs>
  <radialGradient id="radialGradient865" cx="255.99" cy="256" r="230.25" gradientTransform="matrix(1 0 0 .91207 0 22.511)" gradientUnits="userSpaceOnUse">
   <stop stop-color="#e74c3c" offset="0"/>
   <stop stop-color="#c0392b" offset="1"/>
  </radialGradient>
  <linearGradient id="linearGradient869" x1="17.841" x2="303.38" y1="290.93" y2="290.93" gradientTransform="matrix(1 0 0 .91207 -7.9045 23.468)" gradientUnits="userSpaceOnUse">
   <stop stop-color="#34495e" offset="0"/>
   <stop stop-color="#7f8c8d" offset="1"/>
  </linearGradient>
 </defs>
 <g class="" transform="translate(-13)">
  <path d="m274.43 219.4c2.7596-4.2419 6.4745-7.7783 10.847-10.326 4.0688-2.3342 8.7446-3.3933 13.422-3.04 4.8792 0.46258 9.5502 2.2034 13.542 5.047 4.7608 3.3753 8.8122 7.653 11.924 12.59 3.7883 5.8951 6.6187 12.353 8.386 19.134 1.9027 7.1712 2.7655 14.578 2.562 21.995-0.15907 6.7927-1.3368 13.523-3.494 19.966-1.837 5.6171-4.7363 10.829-8.54 15.352-3.2807 3.924-7.5681 6.8804-12.402 8.552-4.4588 1.4645-9.255 1.5534-13.765 0.255-4.6573-1.3932-8.9362-3.8288-12.512-7.122-2.0995-1.8844-4.0191-3.96-5.734-6.2l-32.278 4.514c2.0088 5.4763 4.3808 10.812 7.1 15.973 4.8901 9.4001 11.181 18.002 18.656 25.512 6.7711 6.8818 14.911 12.266 23.893 15.806 8.7862 3.4129 18.378 4.1845 27.597 2.22 10.019-2.3231 19.155-7.4885 26.31-14.876 7.898-7.853 14.42-18.258 19.112-30.514 5.04-13.452 7.8503-27.637 8.32-41.995 0.60913-15.829-1.2395-31.657-5.48-46.92-3.8262-14.273-10.081-27.781-18.49-39.932-7.6-10.726-16.417-18.946-25.78-24.403-8.4316-5.0886-18.114-7.7273-27.962-7.62-9.4196 0.29521-18.55 3.3243-26.278 8.718-8.2163 5.766-15.094 13.234-20.165 21.897-5.4404 9.1886-9.4814 19.136-11.99 29.516-1.7516 7.0602-2.9386 14.249-3.55 21.497l31.192-4.37c1.3662-3.9636 3.2337-7.7362 5.557-11.226zm198.3-34.984c-10.926-35.274-27.287-64.757-46.842-87.374-18.557-21.518-39.544-36.26-61.118-44.213-20.155-7.41-40.564-8.74-59.953-4.248-18.058 4.204-35.196 13.466-50.603 27.62-14.42 13.21-26.09 29.626-35.185 47.807-8.8296 17.951-15.313 36.964-19.29 56.57-4.1077 19.958-6.0708 40.298-5.856 60.674l22.582-3.16c0.36806-13.58 2.0584-27.092 5.047-40.344 3.3182-14.977 8.6932-29.423 15.972-42.926 7.365-13.4 16.716-25.124 27.997-34.087 11.89-9.44 24.88-14.986 38.3-16.64 14.165-1.774 28.773 0.744 42.938 7.51 14.863 7.1 29.084 18.78 41.485 34.774 12.856 16.572 23.515 37.46 30.66 61.917 7.0686 24.219 10.023 49.453 8.74 74.65-1.254 24.05-6.4 46.422-14.72 65.656-8.042 18.58-18.857 33.887-31.824 44.88-12.313 10.47-26.345 16.915-41.463 18.656-14.114 1.5123-28.371-0.9467-41.163-7.1-12.313-5.722-23.826-14.485-34.03-25.51-10.304-11.272-18.964-23.943-25.724-37.637-6.134-12.337-11.006-25.262-14.542-38.578l-22.484 3.106c4.531 19.944 11.226 39.333 19.966 57.823 8.4894 18.03 19.304 34.871 32.168 50.092 12.99 15.186 27.82 27.83 43.914 36.793 17.18 9.574 36.027 15.064 55.705 14.865 21.263-0.21 41.44-7.022 59.52-19.778 19.356-13.654 36.005-33.897 48.617-59.432 13.244-26.82 21.697-58.788 24.048-93.64 2.4074-36.735-1.9502-73.599-12.856-108.76z" fill="url(#radialGradient865)"/>
  <path d="m303.23 258.91c1.1587 8.2497-4.5942 15.875-12.845 17.026l-147.25 20.61-21.33 32.522-82.637 11.57 21.33-32.568-24.547 3.44c-0.278 0-0.555 0.12-0.843 0.165-0.69848 0.0968-1.4028 0.1449-2.108 0.144-7.9546 0.045-14.575-6.0988-15.123-14.035-0.54834-7.9358 5.1642-14.932 13.049-15.981 0.29 0 0.567 0 0.855-0.078l24.547-3.438-29.45-25.512 82.582-11.547 29.45 25.51 147.26-20.608c0.69812-0.0971 1.4022-0.14559 2.107-0.145 7.5051-0.0118 13.877 5.4954 14.953 12.923z" fill="url(#linearGradient869)"/>
 </g>
</svg>
