<?xml version="1.0" encoding="UTF-8" standalone="no"?>
<svg
   style="height: 512px; width: 512px;"
   viewBox="0 0 512 512"
   version="1.1"
   id="svg8"
   sodipodi:docname="trash.svg"
   inkscape:version="1.1.2 (0a00cf5339, 2022-02-04)"
   xmlns:inkscape="http://www.inkscape.org/namespaces/inkscape"
   xmlns:sodipodi="http://sodipodi.sourceforge.net/DTD/sodipodi-0.dtd"
   xmlns="http://www.w3.org/2000/svg"
   xmlns:svg="http://www.w3.org/2000/svg">
  <defs
     id="defs12" />
  <sodipodi:namedview
     id="namedview10"
     pagecolor="#ffffff"
     bordercolor="#666666"
     borderopacity="1.0"
     inkscape:pageshadow="2"
     inkscape:pageopacity="0.0"
     inkscape:pagecheckerboard="0"
     showgrid="false"
     inkscape:zoom="1.7050781"
     inkscape:cx="255.70676"
     inkscape:cy="256"
     inkscape:window-width="2490"
     inkscape:window-height="1376"
     inkscape:window-x="0"
     inkscape:window-y="0"
     inkscape:window-maximized="1"
     inkscape:current-layer="svg8" />
  <g
     class=""
     style="fill:#555555;fill-opacity:1"
     transform="matrix(0.91202684,0,0,0.91202684,22.698592,-9.8855879)"
     id="g6">
    <path
       d="m 199,103 v 50 h -78 v 30 h 270 v -30 h -78 v -50 z m 18,18 h 78 v 32 h -78 z m -79.002,80 30.106,286 h 175.794 l 30.104,-286 z m 62.338,13.38 0.64,8.98 16,224 0.643,8.976 -17.956,1.283 -0.64,-8.98 -16,-224 -0.643,-8.976 z m 111.328,0 17.955,1.284 -0.643,8.977 -16,224 -0.64,8.98 -17.956,-1.284 0.643,-8.977 16,-224 0.64,-8.98 z M 247,215 h 18 v 242 h -18 z"
       fill="#fff"
       fill-opacity="1"
       id="path4"
       style="fill:#555555;fill-opacity:1" />
  </g>
</svg>
