<?xml version="1.0" encoding="UTF-8"?>
<!-- Created with Inkscape (http://www.inkscape.org/) -->
<svg width="100mm" height="100mm" version="1.1" viewBox="0 0 100 100" xmlns="http://www.w3.org/2000/svg">
 <g>
  <rect width="100" height="100" fill="#3498db"/>
  <g fill="#3493e2">
   <circle cx="76.733" cy="2.01" r="4.3019"/>
   <circle cx="93.995" cy="-.47293" r="4.3019"/>
   <circle cx="100.62" cy="37.125" r="4.3019"/>
   <circle cx="98.133" cy="85.246" r="4.3019"/>
   <circle cx="10.759" cy="3.0741" r="4.3019"/>
   <circle cx="36.179" cy=".3547" r="4.3019"/>
   <circle cx="38.899" cy="13.479" r="4.3019"/>
   <circle cx="64.082" cy="4.8476" r="4.3019"/>
   <circle cx="73.541" cy="21.755" r="4.3019"/>
   <circle cx="86.901" cy="8.1581" r="4.3019"/>
   <circle cx="97.069" cy="26.839" r="4.3019"/>
   <circle cx="54.387" cy="44.456" r="4.3019"/>
   <circle cx="53.441" cy="23.055" r="4.3019"/>
   <circle cx="77.561" cy="39.726" r="4.3019"/>
   <circle cx="50.958" cy=".47293" r="2.0554"/>
   <circle cx="99.552" cy="8.2763" r="2.0554"/>
   <circle cx="100.03" cy="50.958" r="2.0554"/>
   <circle cx="3.7835" cy="14.543" r="2.0554"/>
   <circle cx="6.1031" cy="21.904" r="2.0554"/>
   <circle cx="29.736" cy="16.907" r="2.0554"/>
   <circle cx="47.293" cy="5.7934" r="2.0554"/>
   <circle cx="57.58" cy="13.479" r="2.0554"/>
   <circle cx="71.176" cy="9.6951" r="2.0554"/>
   <circle cx="80.99" cy="14.306" r="2.0554"/>
   <circle cx="94.468" cy="14.424" r="2.0554"/>
   <circle cx="82.881" cy="31.45" r="2.0554"/>
   <circle cx="74.605" cy="31.095" r="2.0554"/>
   <circle cx="62.664" cy="22.346" r="2.0554"/>
   <circle cx="53.678" cy="34.051" r="2.0554"/>
   <circle cx="43.155" cy="21.873" r="2.0554"/>
   <circle cx="32.159" cy="44.574" r="2.0554"/>
   <circle cx="20.927" cy="34.997" r="2.0554"/>
   <circle cx="13.124" cy="24.238" r="2.0554"/>
   <circle cx="17.794" cy="8.3354" r="2.0554"/>
   <circle cx="34.406" cy="7.2122" r="2.0554"/>
   <circle cx="49.185" cy="14.365" r="2.0554"/>
   <circle cx="65.974" cy="15.725" r="2.0554"/>
   <circle cx="5.5594" cy="28.654" r="2.0554"/>
   <circle cx="11.705" cy="44.929" r="2.0554"/>
   <circle cx="5.9358" cy="44.477" r="2.0554"/>
   <circle cx="3.7622" cy="72.401" r="2.0554"/>
   <circle cx="29.558" cy="92.458" r="2.0554"/>
   <circle cx="20.1" cy="96.833" r="2.0554"/>
   <circle cx="22.464" cy="69.639" r="2.0554"/>
   <circle cx="20.218" cy="78.861" r="2.0554"/>
   <circle cx="4.9658" cy="80.99" r="2.0554"/>
   <circle cx="5.3205" cy="95.414" r="2.0554"/>
   <circle cx="21.045" cy="89.975" r="2.0554"/>
   <circle cx="36.77" cy="89.148" r="2.0554"/>
   <circle cx="40.881" cy="93.259" r="2.0554"/>
   <circle cx="32.041" cy="73.423" r="2.0554"/>
   <circle cx="38.189" cy="71.295" r="2.0554"/>
   <circle cx="31.45" cy="54.624" r="2.0554"/>
   <circle cx="53.178" cy="70.021" r="2.0554"/>
   <circle cx="59.826" cy="74.487" r="2.0554"/>
   <circle cx="54.151" cy="82.645" r="2.0554"/>
   <circle cx="39.372" cy="82.054" r="2.0554"/>
   <circle cx="46.229" cy="86.665" r="2.0554"/>
   <circle cx="84.418" cy="89.621" r="2.0554"/>
   <circle cx="85.694" cy="95.81" r="2.0554"/>
   <circle cx="91.044" cy="89.874" r="2.0554"/>
   <circle cx="76.556" cy="84.537" r="2.0554"/>
   <circle cx="27.194" cy="50.604" r="2.0554"/>
   <circle cx="49.303" cy="52.968" r="2.0554"/>
   <circle cx="42.919" cy="42.564" r="2.0554"/>
   <circle cx="62.427" cy="41.145" r="2.0554"/>
   <circle cx="69.994" cy="41.382" r="2.0554"/>
   <circle cx="59.708" cy="52.141" r="2.0554"/>
   <circle cx="62.782" cy="46.702" r="2.0554"/>
   <circle cx="80.28" cy="49.54" r="2.0554"/>
   <circle cx="86.192" cy="43.746" r="2.0554"/>
   <circle cx="95.887" cy="45.047" r="2.0554"/>
   <circle cx="87.611" cy="51.195" r="2.0554"/>
   <circle cx="86.901" cy="61.245" r="2.0554"/>
   <circle cx="74.369" cy="58.644" r="2.0554"/>
   <circle cx="85.364" cy="23.174" r="4.3019"/>
   <circle cx="63.609" cy="32.632" r="4.3019"/>
   <circle cx="45.047" cy="34.879" r="4.3019"/>
   <circle cx="36.534" cy="26.13" r="4.3019"/>
   <circle cx="26.039" cy="9.0766" r="4.3019"/>
   <circle cx="65.974" cy="67.156" r="4.3019"/>
   <circle cx="42.091" cy="63.491" r="4.3019"/>
   <circle cx="18.681" cy="58.289" r="4.3019"/>
   <circle cx="62.427" cy="93.049" r="4.3019"/>
   <circle cx="14.897" cy="15.843" r="4.3019"/>
   <circle cx="24.711" cy="24.474" r="4.3019"/>
   <circle cx="12.887" cy="34.524" r="4.3019"/>
   <circle cx="31.332" cy="37.007" r="4.3019"/>
   <circle cx="41.5" cy="49.421" r="4.3019"/>
   <circle cx="18.799" cy="46.229" r="4.3019"/>
   <circle cx="70.585" cy="51.077" r="4.3019"/>
   <circle cx="91.04" cy="37.243" r="4.3019"/>
   <circle cx="96.124" cy="57.107" r="4.3019"/>
   <circle cx="79.216" cy="65.856" r="4.3019"/>
   <circle cx="54.978" cy="61.245" r="4.3019"/>
   <circle cx="46.82" cy="76.379" r="4.3019"/>
   <circle cx="29.795" cy="64.437" r="4.3019"/>
   <circle cx="11.705" cy="72.95" r="4.3019"/>
   <circle cx="6.6151" cy="64.346" r="4.3019"/>
   <circle cx="8.2767" cy="53.172" r="4.3019"/>
   <circle cx="28.849" cy="82.763" r="4.3019"/>
   <circle cx="63.491" cy="81.344" r="4.3019"/>
   <circle cx="74.25" cy="77.206" r="4.3019"/>
   <circle cx="73.896" cy="91.926" r="4.3019"/>
   <circle cx="86.665" cy="80.753" r="4.3019"/>
   <circle cx="94.114" cy="72.95" r="4.3019"/>
   <circle cx="49.303" cy="93.404" r="4.3019"/>
   <circle cx="11.469" cy="88.438" r="4.3019"/>
   <circle cx="65.265" cy="58.407" r="2.0554"/>
   <circle cx="82.172" cy="56.397" r="2.0554"/>
   <circle cx="94.705" cy="64.91" r="2.0554"/>
   <circle cx="86.192" cy="70.94" r="2.0554"/>
   <circle cx=".61639" cy="37.125" r="4.3019"/>
   <circle cx="-1.8665" cy="85.246" r="4.3019"/>
   <circle cx="-2.9306" cy="26.839" r="4.3019"/>
   <circle cx="-.44771" cy="8.2763" r="2.0554"/>
   <circle cx=".025225" cy="50.958" r="2.0554"/>
   <circle cx="-3.8765" cy="57.107" r="4.3019"/>
   <circle cx="76.733" cy="102.01" r="4.3019"/>
   <circle cx="93.995" cy="99.527" r="4.3019"/>
   <circle cx="10.759" cy="103.07" r="4.3019"/>
   <circle cx="36.179" cy="100.35" r="4.3019"/>
   <circle cx="50.958" cy="100.47" r="2.0554"/>
   <circle cx="54.269" cy="7.5669" r="2.0554"/>
  </g>
 </g>
</svg>
