<?xml version="1.0" encoding="UTF-8"?>
<svg style="height:512px;width:512px" version="1.1" viewBox="0 0 512 512" xmlns="http://www.w3.org/2000/svg" xmlns:xlink="http://www.w3.org/1999/xlink">
 <defs>
  <radialGradient id="radialGradient1256" cx="253.6" cy="257.32" r="236.23" gradientTransform="matrix(.50586 0 0 .60483 125.32 101.68)" gradientUnits="userSpaceOnUse">
   <stop stop-color="#3498db" offset="0"/>
   <stop stop-color="#2980b9" offset="1"/>
  </radialGradient>
 </defs>
 <g class="" transform="translate(-13)" fill="#4dffff" stroke="#000" stroke-width="2">
  <path d="m50.656 22.125c24.862 31.888 280 358.57 341.06 411.72 76.902 66.936 132.72-3.814 73-73-52.197-60.47-369.48-308.09-408.81-338.72h-5.25zm188.66 0c45.33 61.388 132.53 178.24 165.25 206.72 53.745 46.78 93.142-3.023 51.407-51.376-26.569-30.779-129.07-108.2-192.72-155.34h-23.938zm131.38 0c14.423 16.078 27.153 29.668 33.313 35.03 41.042 35.724 71.142 1.755 46.125-35.03h-79.438zm-353.31 110.38v54.313c42.702 54.933 87.407 110.52 108.03 128.47 53.748 46.783 93.143-2.456 51.407-50.81-21.41-24.807-95.776-83.243-159.44-131.97zm0 165.84v56.656c45.978 54.937 90.37 107.06 106.28 120.91 47.652 41.476 81.973-2.693 44.97-45.562-16.444-19.05-84.786-76.927-151.25-132z" fill="url(#radialGradient1256)" stroke="#000" stroke-width="2"/>
 </g>
</svg>
