<?xml version="1.0" encoding="UTF-8"?>
<svg style="height:512px;width:512px" version="1.1" viewBox="0 0 512 512" xmlns="http://www.w3.org/2000/svg">
 <g class="" transform="translate(0)" style="">
  <path d="m124.81 388.91a60.718 60.718 0 0 0 16.564 11.588l-34.096 34.575a48.756 48.756 0 0 0-28.35-28.006l34.16-34.576a61.093 61.093 0 0 0 11.722 16.42zm209.6-276.44c-32.754 33.14-57.813 79.127-103.01 124.85-9.13 9.245-40.292 37.355-58.303 53.555l49.223 48.64c15.98-18.24 43.727-49.744 52.858-58.978 45.154-45.726 90.828-71.39 123.57-104.48 53.933-54.575 82.25-147.57 82.25-147.57s-92.67 29.4-146.59 83.976zm-250.75 318.13a30.92 30.92 0 1 0 0.26 43.727 30.817 30.817 0 0 0-0.26-43.727zm91.13-40.603c11.16 0 20.822-2.81 24.497-6.56l20.885-21.103-69.88-69.047-20.823 21.135c-7.964 8.068-11.233 43.06 7.85 61.905 10.12 10.026 24.79 13.66 37.47 13.66z" fill="#fff"/>
 </g>
 <g fill="#555">
  <path d="m198.43 313.75-22.874-22.554 14.101-12.988c25.061-23.083 55.691-53.696 66.249-66.21 5.6625-6.7124 22.262-27.621 36.887-46.463 14.625-18.842 32.255-40.198 39.178-47.457 23.355-24.49 48.686-42.416 86.824-61.441 24.604-12.273 57.212-25.983 58.57-24.625 2.7225 2.7225-26.548 67.284-42.445 93.622-20.49 33.946-37.419 51.687-87.259 91.443-51.646 41.196-61.688 50.339-94.822 86.336-16.652 18.09-30.559 32.891-30.905 32.891s-10.923-10.149-23.504-22.554z"/>
  <path d="m154.91 384.86c-8.875-2.7324-19.842-12.869-24.761-22.885-3.572-7.274-3.9488-9.4693-3.9488-23.011 0-16.984 0.019-17.027 15.528-34.583l8.1554-9.2317 67.242 67.199-9.5059 9.5835c-12.9 13.005-17.72 15.165-33.57 15.041-6.9289-0.054-15.542-1.0046-19.14-2.1125z"/>
  <path d="m104.35 426.33c-3.449-5.5789-9.6643-11.766-17.489-17.41l-3.91-2.8202 13.925-14.453c7.6588-7.9493 14.536-14.424 15.282-14.388 0.74649 0.0359 3.2609 2.5088 5.5875 5.4952 2.3266 2.9864 7.5572 8.192 11.624 11.568 4.0664 3.3759 7.3977 6.7838 7.4029 7.5732 5e-3 0.7894-6.4944 7.8932-14.444 15.786l-14.453 14.351z"/>
  <path d="m49.222 478.26c-3.418-1.8045-8.099-5.9564-10.402-9.2263-3.4467-4.8935-4.2674-7.6185-4.6385-15.403-0.37332-7.8301 0.10664-10.418 2.7895-15.039 6.4059-11.035 21.055-17.636 31.311-14.11 14.299 4.9156 21.963 14.834 21.963 28.421 0 11.447-5.1776 19.7-15.625 24.906-9.3805 4.6745-17.137 4.8124-25.398 0.45129z"/>
 </g>
</svg>
